<svg xmlns="http://www.w3.org/2000/svg" viewBox="0 0 1600 1080" preserveAspectRatio="none"><path d="M4.7 690.6l-2.8 2.6" stroke="#28251d" stroke-width="1.7" opacity="0.47"/><path d="M7.2 963.6l-4.7 4.1" stroke="#28251d" stroke-width="0.8" opacity="0.40"/><path d="M11.0 28.7l0.4 6.8" stroke="#28251d" stroke-width="0.8" opacity="0.44"/><path d="M13.7 874.2l2.0 2.2" stroke="#28251d" stroke-width="1.0" opacity="0.26"/><path d="M1.6 1033.8l-4.0 10.1" stroke="#28251d" stroke-width="1.8" opacity="0.44"/><path d="M9.1 871.7l4.7 19.5" stroke="#28251d" stroke-width="1.0" opacity="0.42"/><path d="M14.6 895.8l0.8 16.8" stroke="#28251d" stroke-width="1.6" opacity="0.22"/><path d="M1.4 246.1l-2.7 8.9" stroke="#28251d" stroke-width="0.6" opacity="0.31"/><path d="M6.3 686.5l-2.9 10.8" stroke="#28251d" stroke-width="0.9" opacity="0.57"/><path d="M2.9 699.9l2.3 16.6" stroke="#28251d" stroke-width="0.7" opacity="0.35"/><path d="M9.5 1068.7l1.8 17.4" stroke="#28251d" stroke-width="1.8" opacity="0.51"/><path d="M5.4 247.4l-2.3 2.8" stroke="#28251d" stroke-width="0.8" opacity="0.58"/><path d="M11.1 946.5l-1.0 9.6" stroke="#28251d" stroke-width="2.0" opacity="0.38"/><path d="M9.5 286.1l-2.4 7.9" stroke="#28251d" stroke-width="1.4" opacity="0.56"/><path d="M17.0 431.4l0.1 7.3" stroke="#28251d" stroke-width="0.6" opacity="0.22"/><path d="M13.5 118.4l-0.8 17.1" stroke="#28251d" stroke-width="0.5" opacity="0.35"/><path d="M16.5 1075.8l3.6 14.7" stroke="#28251d" stroke-width="0.4" opacity="0.49"/><path d="M4.5 736.2l1.4 14.9" stroke="#28251d" stroke-width="0.6" opacity="0.37"/><path d="M14.9 490.0l-2.4 24.9" stroke="#28251d" stroke-width="1.3" opacity="0.27"/><path d="M5.1 985.6l1.4 22.9" stroke="#28251d" stroke-width="1.4" opacity="0.26"/><path d="M13.2 823.5l0.3 14.9" stroke="#28251d" stroke-width="0.4" opacity="0.33"/><path d="M14.9 21.0l3.3 24.3" stroke="#28251d" stroke-width="0.9" opacity="0.22"/><path d="M1.5 948.3l-0.1 24.7" stroke="#28251d" stroke-width="0.5" opacity="0.50"/><path d="M8.1 827.1l0.5 5.1" stroke="#28251d" stroke-width="0.9" opacity="0.55"/><path d="M9.2 457.0l2.3 7.1" stroke="#28251d" stroke-width="0.7" opacity="0.32"/><path d="M7.4 1074.8l0.2 17.6" stroke="#28251d" stroke-width="0.6" opacity="0.29"/><path d="M3.9 365.1l-2.8 16.1" stroke="#28251d" stroke-width="0.5" opacity="0.45"/><path d="M14.6 247.3l-4.3 23.7" stroke="#28251d" stroke-width="0.8" opacity="0.47"/><path d="M15.9 231.4l0.7 5.2" stroke="#28251d" stroke-width="1.2" opacity="0.51"/><path d="M1.6 872.1l-0.7 6.6" stroke="#28251d" stroke-width="1.1" opacity="0.39"/><path d="M16.7 787.4l-4.0 18.2" stroke="#28251d" stroke-width="1.1" opacity="0.34"/><path d="M3.2 930.6l-0.5 8.0" stroke="#28251d" stroke-width="1.1" opacity="0.31"/><path d="M7.5 269.8l3.6 24.2" stroke="#28251d" stroke-width="1.3" opacity="0.22"/><path d="M16.5 1079.2l4.3 22.1" stroke="#28251d" stroke-width="1.8" opacity="0.27"/><path d="M6.8 524.5l-4.4 7.1" stroke="#28251d" stroke-width="1.0" opacity="0.59"/><path d="M7.7 286.4l-0.8 20.8" stroke="#28251d" stroke-width="2.0" opacity="0.60"/><path d="M2.6 600.2l-2.0 19.2" stroke="#28251d" stroke-width="2.0" opacity="0.43"/><path d="M1.0 585.6l0.8 20.0" stroke="#28251d" stroke-width="1.3" opacity="0.54"/><path d="M1.4 170.0l-3.1 25.1" stroke="#28251d" stroke-width="1.4" opacity="0.47"/><path d="M15.1 254.0l-2.5 4.9" stroke="#28251d" stroke-width="1.4" opacity="0.45"/><path d="M8.9 452.8l4.3 16.0" stroke="#28251d" stroke-width="0.7" opacity="0.49"/><path d="M11.4 257.8l-2.0 11.5" stroke="#28251d" stroke-width="0.9" opacity="0.50"/><path d="M17.0 78.3l5.0 13.0" stroke="#28251d" stroke-width="0.5" opacity="0.29"/><path d="M15.0 286.4l3.8 24.4" stroke="#28251d" stroke-width="1.0" opacity="0.26"/><path d="M10.4 900.4l4.9 18.9" stroke="#28251d" stroke-width="1.5" opacity="0.20"/><path d="M11.3 882.5l4.4 9.2" stroke="#28251d" stroke-width="0.6" opacity="0.25"/><path d="M4.6 115.6l1.0 15.3" stroke="#28251d" stroke-width="1.6" opacity="0.28"/><path d="M8.3 685.0l4.1 8.3" stroke="#28251d" stroke-width="1.8" opacity="0.24"/><path d="M0.1 457.5l2.7 8.6" stroke="#28251d" stroke-width="1.5" opacity="0.30"/><path d="M7.3 800.5l-4.9 15.2" stroke="#28251d" stroke-width="0.5" opacity="0.55"/><path d="M14.2 976.2l0.8 15.1" stroke="#28251d" stroke-width="0.7" opacity="0.25"/><path d="M13.5 332.9l3.6 23.6" stroke="#28251d" stroke-width="1.9" opacity="0.28"/><path d="M13.3 269.5l3.8 4.5" stroke="#28251d" stroke-width="1.1" opacity="0.45"/><path d="M14.7 166.9l4.8 24.3" stroke="#28251d" stroke-width="1.8" opacity="0.55"/><path d="M5.6 26.8l4.3 19.7" stroke="#28251d" stroke-width="1.8" opacity="0.55"/><path d="M1586.6 875.6l-3.9 8.4" stroke="#28251d" stroke-width="1.9" opacity="0.54"/><path d="M1592.2 240.2l-1.9 21.6" stroke="#28251d" stroke-width="1.8" opacity="0.29"/><path d="M1594.4 25.6l3.6 6.6" stroke="#28251d" stroke-width="2.0" opacity="0.31"/><path d="M1583.3 692.8l0.4 11.6" stroke="#28251d" stroke-width="2.0" opacity="0.25"/><path d="M1583.6 1048.0l-2.3 6.3" stroke="#28251d" stroke-width="0.6" opacity="0.37"/><path d="M1589.7 786.8l0.1 9.5" stroke="#28251d" stroke-width="1.1" opacity="0.43"/><path d="M1600.0 275.1l4.3 19.0" stroke="#28251d" stroke-width="1.3" opacity="0.49"/><path d="M1593.8 801.3l-4.3 18.1" stroke="#28251d" stroke-width="1.5" opacity="0.33"/><path d="M1587.8 339.0l-2.0 22.4" stroke="#28251d" stroke-width="0.9" opacity="0.36"/><path d="M1597.8 434.6l-0.8 9.1" stroke="#28251d" stroke-width="2.0" opacity="0.47"/><path d="M1594.9 975.0l0.5 16.8" stroke="#28251d" stroke-width="0.4" opacity="0.31"/><path d="M1588.9 464.3l-0.4 15.9" stroke="#28251d" stroke-width="1.2" opacity="0.29"/><path d="M1586.5 511.0l-3.3 23.6" stroke="#28251d" stroke-width="0.5" opacity="0.41"/><path d="M1586.1 683.6l2.5 10.0" stroke="#28251d" stroke-width="1.5" opacity="0.29"/><path d="M1595.8 215.1l-0.2 2.6" stroke="#28251d" stroke-width="1.8" opacity="0.23"/><path d="M1596.7 447.6l2.0 17.1" stroke="#28251d" stroke-width="1.2" opacity="0.30"/><path d="M1587.2 708.5l2.7 2.1" stroke="#28251d" stroke-width="0.6" opacity="0.37"/><path d="M1591.2 190.0l-4.5 25.0" stroke="#28251d" stroke-width="0.8" opacity="0.54"/><path d="M1588.7 493.0l4.9 21.2" stroke="#28251d" stroke-width="1.4" opacity="0.58"/><path d="M1587.8 962.7l0.0 16.7" stroke="#28251d" stroke-width="1.8" opacity="0.42"/><path d="M1591.9 969.0l-2.4 19.8" stroke="#28251d" stroke-width="0.8" opacity="0.46"/><path d="M1589.3 827.1l-2.3 14.5" stroke="#28251d" stroke-width="0.5" opacity="0.31"/><path d="M1590.8 293.5l-3.6 9.7" stroke="#28251d" stroke-width="0.8" opacity="0.48"/><path d="M1593.1 762.9l0.4 3.5" stroke="#28251d" stroke-width="1.1" opacity="0.28"/><path d="M1590.1 453.8l2.0 23.7" stroke="#28251d" stroke-width="1.9" opacity="0.51"/><path d="M1594.0 410.8l2.5 2.1" stroke="#28251d" stroke-width="1.9" opacity="0.58"/><path d="M1590.7 452.5l1.0 19.9" stroke="#28251d" stroke-width="0.8" opacity="0.29"/><path d="M1594.3 470.7l1.8 2.7" stroke="#28251d" stroke-width="1.1" opacity="0.27"/><path d="M1589.4 504.8l-4.7 5.1" stroke="#28251d" stroke-width="1.1" opacity="0.43"/><path d="M1597.7 29.3l-0.4 17.4" stroke="#28251d" stroke-width="0.5" opacity="0.35"/><path d="M1587.1 228.6l-1.2 9.8" stroke="#28251d" stroke-width="1.7" opacity="0.53"/><path d="M1599.7 272.5l0.4 4.0" stroke="#28251d" stroke-width="2.1" opacity="0.34"/><path d="M1588.9 702.2l2.5 20.7" stroke="#28251d" stroke-width="2.0" opacity="0.28"/><path d="M1597.9 22.0l1.7 5.7" stroke="#28251d" stroke-width="1.4" opacity="0.29"/><path d="M1597.1 755.4l1.1 20.4" stroke="#28251d" stroke-width="1.7" opacity="0.25"/><path d="M1598.2 884.8l-4.7 25.2" stroke="#28251d" stroke-width="0.9" opacity="0.47"/><path d="M1587.8 1034.8l-4.2 11.5" stroke="#28251d" stroke-width="1.6" opacity="0.45"/><path d="M1585.5 110.1l1.0 20.5" stroke="#28251d" stroke-width="0.6" opacity="0.59"/><path d="M1592.7 845.2l-1.3 10.3" stroke="#28251d" stroke-width="1.3" opacity="0.34"/><path d="M1598.2 917.5l4.6 21.7" stroke="#28251d" stroke-width="1.5" opacity="0.53"/><path d="M1587.5 763.9l4.7 12.5" stroke="#28251d" stroke-width="0.9" opacity="0.52"/><path d="M1592.6 581.2l2.3 13.6" stroke="#28251d" stroke-width="0.9" opacity="0.54"/><path d="M1585.0 897.2l-2.6 4.1" stroke="#28251d" stroke-width="1.2" opacity="0.44"/><path d="M1585.5 409.3l-3.2 2.7" stroke="#28251d" stroke-width="0.8" opacity="0.52"/><path d="M1588.1 367.6l-2.2 23.1" stroke="#28251d" stroke-width="0.4" opacity="0.58"/><path d="M1591.7 92.5l2.6 19.3" stroke="#28251d" stroke-width="1.6" opacity="0.46"/><path d="M1598.4 530.1l-2.8 21.0" stroke="#28251d" stroke-width="1.6" opacity="0.32"/><path d="M1591.0 628.1l-0.7 13.4" stroke="#28251d" stroke-width="1.7" opacity="0.33"/><path d="M1595.7 759.1l-3.8 8.5" stroke="#28251d" stroke-width="0.7" opacity="0.25"/><path d="M1596.9 578.7l-2.8 20.3" stroke="#28251d" stroke-width="1.2" opacity="0.49"/><path d="M1595.2 1054.7l-4.0 14.6" stroke="#28251d" stroke-width="0.7" opacity="0.29"/><path d="M1590.9 193.8l-2.3 2.3" stroke="#28251d" stroke-width="2.1" opacity="0.42"/><path d="M1585.2 753.2l-0.1 5.0" stroke="#28251d" stroke-width="1.9" opacity="0.43"/><path d="M1596.9 506.9l-4.5 12.6" stroke="#28251d" stroke-width="2.0" opacity="0.39"/><path d="M1598.7 887.9l1.3 11.6" stroke="#28251d" stroke-width="0.5" opacity="0.26"/><circle cx="900.5" cy="5.2" r="1.1" fill="#28251d" opacity=".35"/><circle cx="665.9" cy="1073.5" r="1.0" fill="#28251d" opacity=".35"/><circle cx="708.4" cy="1079.8" r="1.2" fill="#28251d" opacity=".35"/><circle cx="96.4" cy="16.3" r="1.2" fill="#28251d" opacity=".35"/><circle cx="423.4" cy="1.4" r="0.5" fill="#28251d" opacity=".35"/><circle cx="653.6" cy="11.7" r="0.6" fill="#28251d" opacity=".35"/><circle cx="1131.1" cy="12.0" r="1.7" fill="#28251d" opacity=".35"/><circle cx="1260.5" cy="10.6" r="0.9" fill="#28251d" opacity=".35"/><circle cx="871.3" cy="11.0" r="0.4" fill="#28251d" opacity=".35"/><circle cx="265.5" cy="1075.7" r="1.0" fill="#28251d" opacity=".35"/><circle cx="749.9" cy="1069.8" r="1.1" fill="#28251d" opacity=".35"/><circle cx="790.1" cy="1063.7" r="1.4" fill="#28251d" opacity=".35"/><circle cx="965.9" cy="0.4" r="1.8" fill="#28251d" opacity=".35"/><circle cx="1075.7" cy="4.6" r="1.0" fill="#28251d" opacity=".35"/><circle cx="1042.4" cy="1066.1" r="1.3" fill="#28251d" opacity=".35"/><circle cx="786.8" cy="1068.9" r="0.8" fill="#28251d" opacity=".35"/><circle cx="167.4" cy="1070.0" r="0.7" fill="#28251d" opacity=".35"/><circle cx="1512.3" cy="1072.4" r="0.4" fill="#28251d" opacity=".35"/><circle cx="403.8" cy="2.0" r="1.3" fill="#28251d" opacity=".35"/><circle cx="868.1" cy="1066.2" r="1.2" fill="#28251d" opacity=".35"/><circle cx="797.6" cy="1063.9" r="1.1" fill="#28251d" opacity=".35"/><circle cx="1484.3" cy="7.4" r="0.3" fill="#28251d" opacity=".35"/><circle cx="1008.0" cy="1075.1" r="1.1" fill="#28251d" opacity=".35"/><circle cx="883.6" cy="1.6" r="1.0" fill="#28251d" opacity=".35"/><circle cx="187.9" cy="1071.5" r="1.1" fill="#28251d" opacity=".35"/><circle cx="437.5" cy="14.2" r="1.0" fill="#28251d" opacity=".35"/><circle cx="231.4" cy="3.2" r="1.6" fill="#28251d" opacity=".35"/><circle cx="442.0" cy="1070.1" r="1.5" fill="#28251d" opacity=".35"/><circle cx="452.5" cy="1073.0" r="1.6" fill="#28251d" opacity=".35"/><circle cx="714.5" cy="1068.7" r="1.0" fill="#28251d" opacity=".35"/><circle cx="514.8" cy="1074.9" r="0.7" fill="#28251d" opacity=".35"/><circle cx="1240.9" cy="1075.7" r="0.9" fill="#28251d" opacity=".35"/><circle cx="1061.9" cy="1079.7" r="1.7" fill="#28251d" opacity=".35"/><circle cx="202.0" cy="16.4" r="1.6" fill="#28251d" opacity=".35"/><circle cx="704.5" cy="8.9" r="0.9" fill="#28251d" opacity=".35"/><circle cx="1047.7" cy="1071.0" r="0.8" fill="#28251d" opacity=".35"/><circle cx="1108.3" cy="1077.5" r="1.7" fill="#28251d" opacity=".35"/><circle cx="1002.9" cy="15.1" r="1.2" fill="#28251d" opacity=".35"/><circle cx="375.6" cy="11.6" r="1.4" fill="#28251d" opacity=".35"/><circle cx="694.4" cy="1.7" r="1.0" fill="#28251d" opacity=".35"/><circle cx="1110.4" cy="15.4" r="0.7" fill="#28251d" opacity=".35"/><circle cx="599.7" cy="2.5" r="0.6" fill="#28251d" opacity=".35"/><circle cx="126.3" cy="14.8" r="1.0" fill="#28251d" opacity=".35"/><circle cx="933.1" cy="1073.8" r="0.7" fill="#28251d" opacity=".35"/><circle cx="15.0" cy="13.7" r="0.4" fill="#28251d" opacity=".35"/><circle cx="1512.4" cy="1068.1" r="1.3" fill="#28251d" opacity=".35"/><circle cx="730.9" cy="1080.0" r="0.5" fill="#28251d" opacity=".35"/><circle cx="610.2" cy="1068.0" r="0.3" fill="#28251d" opacity=".35"/><circle cx="1328.1" cy="6.7" r="1.7" fill="#28251d" opacity=".35"/><circle cx="1192.3" cy="14.2" r="1.2" fill="#28251d" opacity=".35"/><circle cx="563.7" cy="10.8" r="1.2" fill="#28251d" opacity=".35"/><circle cx="1445.4" cy="1068.3" r="0.4" fill="#28251d" opacity=".35"/><circle cx="583.8" cy="1078.5" r="1.4" fill="#28251d" opacity=".35"/><circle cx="281.0" cy="1072.2" r="1.1" fill="#28251d" opacity=".35"/><circle cx="1461.6" cy="1067.4" r="1.8" fill="#28251d" opacity=".35"/><circle cx="472.2" cy="1076.7" r="1.7" fill="#28251d" opacity=".35"/><circle cx="225.2" cy="1077.6" r="1.8" fill="#28251d" opacity=".35"/><circle cx="1287.3" cy="6.2" r="0.7" fill="#28251d" opacity=".35"/><circle cx="197.7" cy="1075.7" r="1.2" fill="#28251d" opacity=".35"/><circle cx="1315.9" cy="16.0" r="1.0" fill="#28251d" opacity=".35"/><circle cx="991.3" cy="16.0" r="1.3" fill="#28251d" opacity=".35"/><circle cx="1016.6" cy="1074.9" r="0.5" fill="#28251d" opacity=".35"/><circle cx="72.6" cy="0.6" r="0.4" fill="#28251d" opacity=".35"/><circle cx="1419.6" cy="1070.7" r="1.2" fill="#28251d" opacity=".35"/><circle cx="1162.6" cy="1074.1" r="1.2" fill="#28251d" opacity=".35"/><circle cx="1502.5" cy="4.8" r="1.0" fill="#28251d" opacity=".35"/><circle cx="1520.9" cy="1064.7" r="1.1" fill="#28251d" opacity=".35"/><circle cx="1564.5" cy="6.1" r="1.8" fill="#28251d" opacity=".35"/><circle cx="1518.4" cy="14.0" r="1.3" fill="#28251d" opacity=".35"/><circle cx="955.4" cy="0.4" r="1.8" fill="#28251d" opacity=".35"/><circle cx="1259.2" cy="3.5" r="1.2" fill="#28251d" opacity=".35"/><circle cx="1300.9" cy="4.0" r="0.7" fill="#28251d" opacity=".35"/><circle cx="1574.4" cy="16.8" r="0.5" fill="#28251d" opacity=".35"/><circle cx="1386.3" cy="2.2" r="1.2" fill="#28251d" opacity=".35"/><circle cx="25.2" cy="1065.2" r="1.1" fill="#28251d" opacity=".35"/><circle cx="1193.1" cy="8.1" r="1.0" fill="#28251d" opacity=".35"/><circle cx="354.5" cy="1075.4" r="1.0" fill="#28251d" opacity=".35"/><circle cx="1542.4" cy="1071.1" r="0.9" fill="#28251d" opacity=".35"/><circle cx="172.7" cy="12.1" r="0.8" fill="#28251d" opacity=".35"/><circle cx="237.3" cy="1073.6" r="0.9" fill="#28251d" opacity=".35"/><circle cx="955.8" cy="1071.6" r="0.4" fill="#28251d" opacity=".35"/><circle cx="1122.8" cy="14.5" r="0.9" fill="#28251d" opacity=".35"/><circle cx="1420.9" cy="1077.1" r="0.9" fill="#28251d" opacity=".35"/><circle cx="152.1" cy="1074.3" r="1.7" fill="#28251d" opacity=".35"/><circle cx="1098.9" cy="8.1" r="0.4" fill="#28251d" opacity=".35"/><circle cx="154.5" cy="12.6" r="1.2" fill="#28251d" opacity=".35"/><circle cx="898.5" cy="1065.1" r="1.6" fill="#28251d" opacity=".35"/><circle cx="1505.8" cy="7.2" r="1.8" fill="#28251d" opacity=".35"/><circle cx="960.7" cy="6.0" r="0.5" fill="#28251d" opacity=".35"/><circle cx="771.5" cy="1069.0" r="0.5" fill="#28251d" opacity=".35"/><circle cx="445.7" cy="3.8" r="1.2" fill="#28251d" opacity=".35"/><circle cx="1052.5" cy="1063.5" r="1.4" fill="#28251d" opacity=".35"/><circle cx="494.4" cy="5.8" r="1.1" fill="#28251d" opacity=".35"/><circle cx="641.3" cy="2.4" r="0.4" fill="#28251d" opacity=".35"/><circle cx="848.8" cy="6.4" r="0.9" fill="#28251d" opacity=".35"/><circle cx="1154.6" cy="13.2" r="1.6" fill="#28251d" opacity=".35"/><circle cx="248.9" cy="12.8" r="0.7" fill="#28251d" opacity=".35"/><circle cx="1059.1" cy="1070.5" r="0.6" fill="#28251d" opacity=".35"/><circle cx="819.8" cy="1064.9" r="1.1" fill="#28251d" opacity=".35"/><circle cx="493.5" cy="3.7" r="0.3" fill="#28251d" opacity=".35"/><circle cx="482.3" cy="1065.3" r="0.7" fill="#28251d" opacity=".35"/><circle cx="192.0" cy="8.5" r="0.9" fill="#28251d" opacity=".35"/><circle cx="1125.9" cy="1077.2" r="0.4" fill="#28251d" opacity=".35"/><circle cx="1378.8" cy="0.7" r="1.6" fill="#28251d" opacity=".35"/><circle cx="921.2" cy="1075.1" r="0.7" fill="#28251d" opacity=".35"/><circle cx="648.1" cy="1065.9" r="1.5" fill="#28251d" opacity=".35"/><circle cx="1471.6" cy="1.5" r="1.0" fill="#28251d" opacity=".35"/><circle cx="640.7" cy="1077.8" r="0.6" fill="#28251d" opacity=".35"/><circle cx="1246.6" cy="1.3" r="1.7" fill="#28251d" opacity=".35"/><circle cx="559.0" cy="12.4" r="0.7" fill="#28251d" opacity=".35"/><circle cx="234.3" cy="3.4" r="0.6" fill="#28251d" opacity=".35"/><circle cx="1236.6" cy="1075.8" r="1.3" fill="#28251d" opacity=".35"/><circle cx="1411.3" cy="1079.8" r="1.6" fill="#28251d" opacity=".35"/><circle cx="1003.5" cy="1064.2" r="1.2" fill="#28251d" opacity=".35"/><circle cx="1274.1" cy="10.1" r="0.8" fill="#28251d" opacity=".35"/><circle cx="723.1" cy="1.0" r="1.3" fill="#28251d" opacity=".35"/><circle cx="1563.8" cy="1073.1" r="1.0" fill="#28251d" opacity=".35"/><circle cx="886.9" cy="1078.2" r="1.7" fill="#28251d" opacity=".35"/><circle cx="914.7" cy="3.2" r="1.7" fill="#28251d" opacity=".35"/><circle cx="720.8" cy="13.8" r="1.1" fill="#28251d" opacity=".35"/><circle cx="276.1" cy="1070.4" r="1.1" fill="#28251d" opacity=".35"/><circle cx="975.7" cy="1078.6" r="0.9" fill="#28251d" opacity=".35"/><circle cx="541.4" cy="1076.4" r="0.4" fill="#28251d" opacity=".35"/><circle cx="151.2" cy="11.5" r="0.8" fill="#28251d" opacity=".35"/><circle cx="932.4" cy="1068.9" r="0.5" fill="#28251d" opacity=".35"/><circle cx="1134.1" cy="1072.5" r="1.5" fill="#28251d" opacity=".35"/><circle cx="1072.2" cy="14.1" r="1.3" fill="#28251d" opacity=".35"/><circle cx="677.5" cy="6.2" r="1.7" fill="#28251d" opacity=".35"/><circle cx="546.8" cy="13.0" r="0.5" fill="#28251d" opacity=".35"/><circle cx="473.3" cy="13.4" r="1.3" fill="#28251d" opacity=".35"/><circle cx="1402.2" cy="10.5" r="0.5" fill="#28251d" opacity=".35"/><circle cx="1330.2" cy="13.1" r="1.4" fill="#28251d" opacity=".35"/><circle cx="69.9" cy="1075.2" r="1.2" fill="#28251d" opacity=".35"/><circle cx="1203.8" cy="13.3" r="0.8" fill="#28251d" opacity=".35"/><circle cx="1293.8" cy="1077.2" r="1.3" fill="#28251d" opacity=".35"/><circle cx="912.7" cy="1076.1" r="1.1" fill="#28251d" opacity=".35"/><circle cx="669.9" cy="2.8" r="1.6" fill="#28251d" opacity=".35"/><circle cx="83.5" cy="8.2" r="1.4" fill="#28251d" opacity=".35"/><circle cx="825.5" cy="2.1" r="0.7" fill="#28251d" opacity=".35"/><circle cx="1448.5" cy="2.5" r="1.5" fill="#28251d" opacity=".35"/><circle cx="1415.4" cy="1070.1" r="1.1" fill="#28251d" opacity=".35"/><circle cx="377.2" cy="16.9" r="0.8" fill="#28251d" opacity=".35"/><circle cx="158.5" cy="12.1" r="0.5" fill="#28251d" opacity=".35"/><circle cx="459.0" cy="14.1" r="1.4" fill="#28251d" opacity=".35"/><circle cx="750.6" cy="10.5" r="0.7" fill="#28251d" opacity=".35"/><circle cx="1335.9" cy="1075.4" r="0.5" fill="#28251d" opacity=".35"/><circle cx="461.0" cy="1063.8" r="1.3" fill="#28251d" opacity=".35"/><circle cx="996.5" cy="1077.2" r="1.2" fill="#28251d" opacity=".35"/><circle cx="26.3" cy="8.8" r="0.7" fill="#28251d" opacity=".35"/><circle cx="2.5" cy="6.0" r="1.3" fill="#28251d" opacity=".35"/><circle cx="137.0" cy="16.6" r="0.9" fill="#28251d" opacity=".35"/><circle cx="752.2" cy="1079.7" r="1.4" fill="#28251d" opacity=".35"/><circle cx="571.4" cy="1.1" r="1.5" fill="#28251d" opacity=".35"/><circle cx="1176.3" cy="1063.8" r="1.5" fill="#28251d" opacity=".35"/><circle cx="280.1" cy="1070.9" r="1.2" fill="#28251d" opacity=".35"/><circle cx="1298.4" cy="1076.2" r="0.4" fill="#28251d" opacity=".35"/><circle cx="322.5" cy="1078.1" r="1.7" fill="#28251d" opacity=".35"/><circle cx="824.6" cy="1072.2" r="0.4" fill="#28251d" opacity=".35"/><circle cx="1035.0" cy="4.9" r="1.6" fill="#28251d" opacity=".35"/><circle cx="531.1" cy="1069.3" r="1.4" fill="#28251d" opacity=".35"/><circle cx="1431.4" cy="1079.6" r="1.3" fill="#28251d" opacity=".35"/><circle cx="587.8" cy="13.6" r="1.4" fill="#28251d" opacity=".35"/><circle cx="126.3" cy="1077.0" r="0.8" fill="#28251d" opacity=".35"/><circle cx="128.1" cy="1068.2" r="0.5" fill="#28251d" opacity=".35"/><circle cx="710.3" cy="1075.4" r="1.2" fill="#28251d" opacity=".35"/><circle cx="695.9" cy="10.9" r="0.4" fill="#28251d" opacity=".35"/><circle cx="1020.0" cy="6.2" r="1.7" fill="#28251d" opacity=".35"/><circle cx="228.4" cy="10.3" r="0.5" fill="#28251d" opacity=".35"/><circle cx="377.6" cy="11.0" r="1.2" fill="#28251d" opacity=".35"/><circle cx="1086.5" cy="16.1" r="1.2" fill="#28251d" opacity=".35"/><circle cx="847.1" cy="6.8" r="1.7" fill="#28251d" opacity=".35"/><circle cx="41.5" cy="3.2" r="0.7" fill="#28251d" opacity=".35"/><circle cx="416.5" cy="1079.9" r="1.3" fill="#28251d" opacity=".35"/><circle cx="1597.8" cy="3.4" r="1.0" fill="#28251d" opacity=".35"/><circle cx="1437.9" cy="1064.5" r="1.3" fill="#28251d" opacity=".35"/><circle cx="1135.3" cy="1067.9" r="1.6" fill="#28251d" opacity=".35"/><circle cx="1138.9" cy="1073.8" r="1.1" fill="#28251d" opacity=".35"/><circle cx="194.2" cy="1065.4" r="0.3" fill="#28251d" opacity=".35"/><circle cx="886.4" cy="6.3" r="1.2" fill="#28251d" opacity=".35"/><circle cx="137.9" cy="1080.0" r="1.1" fill="#28251d" opacity=".35"/><circle cx="1230.7" cy="1064.3" r="1.3" fill="#28251d" opacity=".35"/><circle cx="720.0" cy="11.6" r="1.5" fill="#28251d" opacity=".35"/><circle cx="206.5" cy="8.5" r="1.1" fill="#28251d" opacity=".35"/><circle cx="486.6" cy="2.8" r="0.8" fill="#28251d" opacity=".35"/><circle cx="1505.4" cy="1077.4" r="0.6" fill="#28251d" opacity=".35"/><circle cx="1530.2" cy="4.7" r="1.1" fill="#28251d" opacity=".35"/><circle cx="269.8" cy="1065.6" r="1.6" fill="#28251d" opacity=".35"/><circle cx="901.8" cy="14.0" r="1.7" fill="#28251d" opacity=".35"/><circle cx="1233.6" cy="1066.6" r="1.2" fill="#28251d" opacity=".35"/><circle cx="48.5" cy="1072.3" r="1.0" fill="#28251d" opacity=".35"/><circle cx="1287.5" cy="11.6" r="1.3" fill="#28251d" opacity=".35"/><circle cx="252.9" cy="1070.9" r="1.2" fill="#28251d" opacity=".35"/><circle cx="500.1" cy="1075.5" r="1.8" fill="#28251d" opacity=".35"/><circle cx="209.2" cy="1072.5" r="0.7" fill="#28251d" opacity=".35"/><circle cx="196.0" cy="7.6" r="0.7" fill="#28251d" opacity=".35"/><circle cx="614.6" cy="10.5" r="1.5" fill="#28251d" opacity=".35"/><circle cx="1494.0" cy="12.3" r="1.0" fill="#28251d" opacity=".35"/><circle cx="823.6" cy="8.5" r="0.4" fill="#28251d" opacity=".35"/><circle cx="629.2" cy="1067.1" r="0.4" fill="#28251d" opacity=".35"/><circle cx="450.2" cy="1077.3" r="0.7" fill="#28251d" opacity=".35"/><circle cx="13.1" cy="1065.3" r="1.4" fill="#28251d" opacity=".35"/><circle cx="1222.2" cy="6.2" r="0.8" fill="#28251d" opacity=".35"/><circle cx="461.8" cy="1070.7" r="1.5" fill="#28251d" opacity=".35"/><circle cx="997.2" cy="10.4" r="0.9" fill="#28251d" opacity=".35"/><circle cx="1271.8" cy="5.8" r="0.6" fill="#28251d" opacity=".35"/><circle cx="814.6" cy="8.5" r="1.4" fill="#28251d" opacity=".35"/><circle cx="1286.3" cy="8.8" r="0.8" fill="#28251d" opacity=".35"/><circle cx="980.9" cy="1079.8" r="1.2" fill="#28251d" opacity=".35"/><circle cx="811.7" cy="1071.3" r="1.0" fill="#28251d" opacity=".35"/><circle cx="26.6" cy="1064.9" r="1.2" fill="#28251d" opacity=".35"/><circle cx="1274.8" cy="12.3" r="1.2" fill="#28251d" opacity=".35"/><circle cx="424.8" cy="11.1" r="1.4" fill="#28251d" opacity=".35"/><circle cx="933.6" cy="1073.7" r="0.5" fill="#28251d" opacity=".35"/><circle cx="1089.2" cy="0.5" r="0.6" fill="#28251d" opacity=".35"/><circle cx="705.7" cy="7.1" r="0.9" fill="#28251d" opacity=".35"/><circle cx="1240.0" cy="15.6" r="1.4" fill="#28251d" opacity=".35"/><circle cx="829.9" cy="1080.0" r="1.1" fill="#28251d" opacity=".35"/><circle cx="502.0" cy="1078.5" r="1.1" fill="#28251d" opacity=".35"/><circle cx="1081.4" cy="1074.6" r="1.2" fill="#28251d" opacity=".35"/><circle cx="307.6" cy="4.2" r="1.7" fill="#28251d" opacity=".35"/><circle cx="1571.6" cy="1075.0" r="0.8" fill="#28251d" opacity=".35"/><circle cx="558.1" cy="1076.5" r="0.7" fill="#28251d" opacity=".35"/><circle cx="917.6" cy="1078.2" r="1.5" fill="#28251d" opacity=".35"/><circle cx="1527.4" cy="1067.9" r="1.7" fill="#28251d" opacity=".35"/><circle cx="126.4" cy="1074.2" r="0.6" fill="#28251d" opacity=".35"/><circle cx="1324.7" cy="1072.6" r="0.5" fill="#28251d" opacity=".35"/><circle cx="985.1" cy="10.0" r="1.3" fill="#28251d" opacity=".35"/><circle cx="84.0" cy="7.0" r="1.3" fill="#28251d" opacity=".35"/><circle cx="219.9" cy="16.4" r="0.9" fill="#28251d" opacity=".35"/><circle cx="1496.1" cy="14.9" r="1.4" fill="#28251d" opacity=".35"/><circle cx="459.6" cy="4.9" r="1.3" fill="#28251d" opacity=".35"/><circle cx="371.6" cy="12.6" r="1.7" fill="#28251d" opacity=".35"/><circle cx="280.1" cy="15.0" r="1.8" fill="#28251d" opacity=".35"/><circle cx="635.2" cy="1078.9" r="1.6" fill="#28251d" opacity=".35"/><circle cx="14.8" cy="1064.8" r="0.7" fill="#28251d" opacity=".35"/><circle cx="1582.6" cy="9.2" r="1.6" fill="#28251d" opacity=".35"/><circle cx="748.8" cy="3.3" r="1.4" fill="#28251d" opacity=".35"/><circle cx="1037.3" cy="1063.2" r="1.5" fill="#28251d" opacity=".35"/><circle cx="908.4" cy="1066.0" r="1.5" fill="#28251d" opacity=".35"/><circle cx="824.4" cy="1.5" r="1.8" fill="#28251d" opacity=".35"/><circle cx="763.9" cy="1063.1" r="0.7" fill="#28251d" opacity=".35"/><circle cx="1206.0" cy="16.2" r="0.7" fill="#28251d" opacity=".35"/><circle cx="575.3" cy="1074.4" r="0.8" fill="#28251d" opacity=".35"/><circle cx="648.7" cy="1078.2" r="1.3" fill="#28251d" opacity=".35"/><circle cx="1021.9" cy="16.0" r="0.6" fill="#28251d" opacity=".35"/><circle cx="213.7" cy="1075.7" r="0.9" fill="#28251d" opacity=".35"/><circle cx="878.8" cy="8.0" r="1.4" fill="#28251d" opacity=".35"/><circle cx="1088.5" cy="1076.4" r="1.1" fill="#28251d" opacity=".35"/><circle cx="578.9" cy="15.6" r="1.2" fill="#28251d" opacity=".35"/><circle cx="239.8" cy="5.6" r="1.3" fill="#28251d" opacity=".35"/><circle cx="1147.1" cy="1078.3" r="1.5" fill="#28251d" opacity=".35"/><circle cx="725.5" cy="8.7" r="1.1" fill="#28251d" opacity=".35"/><circle cx="1076.4" cy="1063.4" r="1.5" fill="#28251d" opacity=".35"/><circle cx="1193.3" cy="1063.8" r="1.4" fill="#28251d" opacity=".35"/><circle cx="865.9" cy="1078.2" r="0.3" fill="#28251d" opacity=".35"/><circle cx="654.2" cy="1076.0" r="0.9" fill="#28251d" opacity=".35"/><circle cx="1426.1" cy="1078.6" r="0.9" fill="#28251d" opacity=".35"/><circle cx="1092.4" cy="1072.2" r="0.5" fill="#28251d" opacity=".35"/><circle cx="1588.6" cy="6.7" r="1.6" fill="#28251d" opacity=".35"/><circle cx="1209.9" cy="1070.9" r="1.1" fill="#28251d" opacity=".35"/><circle cx="1317.4" cy="1068.9" r="0.6" fill="#28251d" opacity=".35"/><circle cx="1400.3" cy="1063.5" r="1.2" fill="#28251d" opacity=".35"/><circle cx="1498.0" cy="15.1" r="0.5" fill="#28251d" opacity=".35"/><circle cx="53.7" cy="10.2" r="0.7" fill="#28251d" opacity=".35"/><circle cx="70.8" cy="7.5" r="0.5" fill="#28251d" opacity=".35"/><circle cx="1589.6" cy="1078.6" r="1.2" fill="#28251d" opacity=".35"/><circle cx="1236.1" cy="13.9" r="1.8" fill="#28251d" opacity=".35"/><circle cx="834.0" cy="7.0" r="1.2" fill="#28251d" opacity=".35"/><circle cx="683.5" cy="1079.5" r="1.5" fill="#28251d" opacity=".35"/><circle cx="510.0" cy="1065.5" r="0.6" fill="#28251d" opacity=".35"/><circle cx="860.7" cy="4.1" r="1.5" fill="#28251d" opacity=".35"/><circle cx="1463.6" cy="9.6" r="0.9" fill="#28251d" opacity=".35"/><circle cx="408.0" cy="1064.3" r="1.6" fill="#28251d" opacity=".35"/><circle cx="147.9" cy="1066.2" r="0.9" fill="#28251d" opacity=".35"/><circle cx="968.0" cy="0.7" r="1.0" fill="#28251d" opacity=".35"/><circle cx="1391.2" cy="5.7" r="0.6" fill="#28251d" opacity=".35"/><circle cx="304.0" cy="1075.7" r="1.7" fill="#28251d" opacity=".35"/><circle cx="1113.0" cy="12.0" r="1.1" fill="#28251d" opacity=".35"/><circle cx="1240.8" cy="1072.1" r="0.8" fill="#28251d" opacity=".35"/><circle cx="575.4" cy="1070.9" r="1.4" fill="#28251d" opacity=".35"/><circle cx="512.4" cy="3.5" r="1.1" fill="#28251d" opacity=".35"/><circle cx="354.0" cy="1067.4" r="0.7" fill="#28251d" opacity=".35"/><circle cx="313.9" cy="3.9" r="1.0" fill="#28251d" opacity=".35"/><circle cx="1047.4" cy="1067.4" r="1.7" fill="#28251d" opacity=".35"/><circle cx="1026.7" cy="1065.9" r="0.6" fill="#28251d" opacity=".35"/><circle cx="1152.5" cy="8.3" r="1.1" fill="#28251d" opacity=".35"/><circle cx="1342.5" cy="1.3" r="1.4" fill="#28251d" opacity=".35"/><circle cx="659.8" cy="14.3" r="0.3" fill="#28251d" opacity=".35"/><circle cx="809.2" cy="1073.5" r="1.3" fill="#28251d" opacity=".35"/><circle cx="25.2" cy="9.0" r="1.1" fill="#28251d" opacity=".35"/><circle cx="439.6" cy="1063.3" r="1.5" fill="#28251d" opacity=".35"/><circle cx="1455.6" cy="1.8" r="0.7" fill="#28251d" opacity=".35"/><circle cx="991.6" cy="1069.0" r="0.4" fill="#28251d" opacity=".35"/><circle cx="1534.9" cy="7.8" r="0.7" fill="#28251d" opacity=".35"/><circle cx="1324.9" cy="1.4" r="0.4" fill="#28251d" opacity=".35"/><circle cx="606.8" cy="9.4" r="1.4" fill="#28251d" opacity=".35"/><circle cx="132.3" cy="1074.0" r="1.1" fill="#28251d" opacity=".35"/><circle cx="1372.7" cy="1.6" r="0.6" fill="#28251d" opacity=".35"/><circle cx="1442.0" cy="1072.6" r="0.4" fill="#28251d" opacity=".35"/><circle cx="119.0" cy="15.7" r="0.6" fill="#28251d" opacity=".35"/><path d="M1598.0 0.0q-10.1 67.4 -21.9 168.6" fill="none" stroke="#28251d" stroke-width="3.10" opacity=".72"/><path d="M1576.1 168.6q-20.4 44.2 -39.1 110.6" fill="none" stroke="#28251d" stroke-width="2.11" opacity=".72"/><path d="M1537.0 279.2q0.6 32.3 -4.0 80.8" fill="none" stroke="#28251d" stroke-width="1.43" opacity=".72"/><path d="M1533.1 360.0q7.2 22.2 7.1 55.4" fill="none" stroke="#28251d" stroke-width="0.97" opacity=".72"/><path d="M1540.2 415.4q10.7 14.5 12.9 36.3" fill="none" stroke="#28251d" stroke-width="0.66" opacity=".72"/><path d="M1553.0 451.8q5.4 10.5 3.9 26.3" fill="none" stroke="#28251d" stroke-width="0.45" opacity=".72"/><path d="M1549.2 440.9q-2.6 6.4 -9.4 15.9" fill="none" stroke="#28251d" stroke-width="0.33" opacity=".72"/><path d="M1538.0 398.8q-3.8 9.7 -11.4 24.3" fill="none" stroke="#28251d" stroke-width="0.49" opacity=".72"/><path d="M1526.7 423.1q-0.1 7.1 -5.2 17.8" fill="none" stroke="#28251d" stroke-width="0.33" opacity=".72"/><path d="M1530.1 415.8q-4.2 1.8 -12.0 4.6" fill="none" stroke="#28251d" stroke-width="0.24" opacity=".72"/><path d="M1534.3 335.8q-12.1 11.9 -25.1 29.7" fill="none" stroke="#28251d" stroke-width="0.72" opacity=".72"/><path d="M1509.2 365.4q-9.0 7.1 -20.1 17.8" fill="none" stroke="#28251d" stroke-width="0.49" opacity=".72"/><path d="M1489.1 383.2q-6.5 3.9 -15.8 9.7" fill="none" stroke="#28251d" stroke-width="0.33" opacity=".72"/><path d="M1495.1 377.9q1.9 5.1 -1.9 12.7" fill="none" stroke="#28251d" stroke-width="0.24" opacity=".72"/><path d="M1516.7 356.5q-7.5 2.5 -17.5 6.3" fill="none" stroke="#28251d" stroke-width="0.36" opacity=".72"/><path d="M1499.2 362.9q-4.2 1.9 -11.9 4.8" fill="none" stroke="#28251d" stroke-width="0.24" opacity=".72"/><path d="M1504.4 361.0q0.0 3.0 -5.0 7.4" fill="none" stroke="#28251d" stroke-width="0.18" opacity=".72"/><path d="M1548.8 246.0q-28.8 7.6 -53.0 19.0" fill="none" stroke="#28251d" stroke-width="1.05" opacity=".72"/><path d="M1495.7 265.0q-18.0 6.7 -35.0 16.8" fill="none" stroke="#28251d" stroke-width="0.72" opacity=".72"/><path d="M1460.7 281.8q-12.0 3.9 -25.0 9.6" fill="none" stroke="#28251d" stroke-width="0.49" opacity=".72"/><path d="M1435.7 291.4q-7.9 1.5 -18.1 3.6" fill="none" stroke="#28251d" stroke-width="0.33" opacity=".72"/><path d="M1443.2 288.6q-4.3 -1.7 -12.2 -4.2" fill="none" stroke="#28251d" stroke-width="0.24" opacity=".72"/><path d="M1471.2 276.8q-7.8 -2.0 -18.0 -5.0" fill="none" stroke="#28251d" stroke-width="0.36" opacity=".72"/><path d="M1453.3 271.7q-4.6 -1.0 -12.6 -2.5" fill="none" stroke="#28251d" stroke-width="0.24" opacity=".72"/><path d="M1458.7 273.2q-1.7 1.7 -7.9 4.3" fill="none" stroke="#28251d" stroke-width="0.18" opacity=".72"/><path d="M1511.6 259.3q-12.9 -2.0 -26.5 -5.1" fill="none" stroke="#28251d" stroke-width="0.53" opacity=".72"/><path d="M1485.1 254.2q-7.8 -1.9 -18.0 -4.8" fill="none" stroke="#28251d" stroke-width="0.36" opacity=".72"/><path d="M1467.1 249.3q-4.0 -2.2 -11.6 -5.5" fill="none" stroke="#28251d" stroke-width="0.24" opacity=".72"/><path d="M1472.5 250.8q-2.2 1.0 -8.6 2.4" fill="none" stroke="#28251d" stroke-width="0.18" opacity=".72"/><path d="M1493.1 255.7q-4.0 2.3 -11.6 5.8" fill="none" stroke="#28251d" stroke-width="0.26" opacity=".72"/><path d="M1481.5 261.5q-2.1 1.0 -8.6 2.6" fill="none" stroke="#28251d" stroke-width="0.18" opacity=".72"/><path d="M1484.9 259.8q1.8 2.4 -1.9 5.9" fill="none" stroke="#28251d" stroke-width="0.13" opacity=".72"/><path d="M1582.7 118.0q-31.2 23.4 -57.0 58.4" fill="none" stroke="#28251d" stroke-width="1.55" opacity=".72"/><path d="M1525.7 176.4q-14.0 19.5 -28.4 48.6" fill="none" stroke="#28251d" stroke-width="1.05" opacity=".72"/><path d="M1497.3 225.0q-13.6 10.9 -27.7 27.2" fill="none" stroke="#28251d" stroke-width="0.72" opacity=".72"/><path d="M1469.6 252.2q-8.1 7.8 -18.5 19.4" fill="none" stroke="#28251d" stroke-width="0.49" opacity=".72"/><path d="M1451.1 271.7q-5.8 4.5 -14.7 11.2" fill="none" stroke="#28251d" stroke-width="0.33" opacity=".72"/><path d="M1456.6 265.8q1.4 5.0 -2.7 12.6" fill="none" stroke="#28251d" stroke-width="0.24" opacity=".72"/><path d="M1477.9 244.1q1.6 7.4 -2.3 18.5" fill="none" stroke="#28251d" stroke-width="0.36" opacity=".72"/><path d="M1475.6 262.6q1.8 5.1 -2.0 12.7" fill="none" stroke="#28251d" stroke-width="0.24" opacity=".72"/><path d="M1476.3 257.0q-0.3 2.8 -5.5 7.1" fill="none" stroke="#28251d" stroke-width="0.18" opacity=".72"/><path d="M1505.8 210.4q4.8 10.7 3.1 26.9" fill="none" stroke="#28251d" stroke-width="0.53" opacity=".72"/><path d="M1508.8 237.3q6.9 7.0 6.5 17.5" fill="none" stroke="#28251d" stroke-width="0.36" opacity=".72"/><path d="M1515.4 254.8q5.3 4.9 3.8 12.3" fill="none" stroke="#28251d" stroke-width="0.24" opacity=".72"/><path d="M1513.4 249.5q0.5 3.2 -4.2 7.9" fill="none" stroke="#28251d" stroke-width="0.18" opacity=".72"/><path d="M1507.9 229.2q8.2 3.9 8.7 9.7" fill="none" stroke="#28251d" stroke-width="0.26" opacity=".72"/><path d="M1516.6 238.9q6.8 2.5 6.4 6.3" fill="none" stroke="#28251d" stroke-width="0.18" opacity=".72"/><path d="M1514.0 236.0q6.7 0.1 6.2 0.3" fill="none" stroke="#28251d" stroke-width="0.13" opacity=".72"/><path d="M1542.8 158.9q1.9 15.7 -1.8 39.1" fill="none" stroke="#28251d" stroke-width="0.78" opacity=".72"/><path d="M1541.0 198.0q5.5 10.7 4.1 26.7" fill="none" stroke="#28251d" stroke-width="0.53" opacity=".72"/><path d="M1545.1 224.7q5.5 7.3 4.2 18.2" fill="none" stroke="#28251d" stroke-width="0.36" opacity=".72"/><path d="M1549.3 242.9q6.3 4.7 5.5 11.6" fill="none" stroke="#28251d" stroke-width="0.24" opacity=".72"/><path d="M1548.1 237.4q1.0 3.3 -3.3 8.3" fill="none" stroke="#28251d" stroke-width="0.18" opacity=".72"/><path d="M1543.9 216.7q7.9 4.0 8.1 10.1" fill="none" stroke="#28251d" stroke-width="0.26" opacity=".72"/><path d="M1552.1 226.8q6.5 2.7 5.9 6.7" fill="none" stroke="#28251d" stroke-width="0.18" opacity=".72"/><path d="M1549.6 223.8q3.2 2.5 0.4 6.2" fill="none" stroke="#28251d" stroke-width="0.13" opacity=".72"/><path d="M1541.5 186.3q9.4 6.2 10.6 15.5" fill="none" stroke="#28251d" stroke-width="0.39" opacity=".72"/><path d="M1552.1 201.8q5.5 4.9 4.2 12.3" fill="none" stroke="#28251d" stroke-width="0.26" opacity=".72"/><path d="M1556.4 214.0q4.1 3.5 1.8 8.8" fill="none" stroke="#28251d" stroke-width="0.18" opacity=".72"/><path d="M1555.1 210.4q1.5 2.3 -2.4 5.7" fill="none" stroke="#28251d" stroke-width="0.13" opacity=".72"/><path d="M1549.0 197.1q8.2 1.0 8.7 2.6" fill="none" stroke="#28251d" stroke-width="0.19" opacity=".72"/><path d="M1557.6 199.7q6.7 0.2 6.2 0.4" fill="none" stroke="#28251d" stroke-width="0.13" opacity=".72"/><path d="M1555.0 198.9q5.2 -1.0 3.6 -2.4" fill="none" stroke="#28251d" stroke-width="0.10" opacity=".72"/><path d="M1600.0 1080.0q-20.2 -66.2 -38.6 -165.6" fill="none" stroke="#28251d" stroke-width="3.10" opacity=".72"/><path d="M1561.4 914.4q-19.8 -44.4 -38.0 -111.0" fill="none" stroke="#28251d" stroke-width="2.11" opacity=".72"/><path d="M1523.4 803.5q-9.4 -31.3 -20.6 -78.3" fill="none" stroke="#28251d" stroke-width="1.43" opacity=".72"/><path d="M1502.7 725.2q0.5 -22.3 -4.2 -55.7" fill="none" stroke="#28251d" stroke-width="0.97" opacity=".72"/><path d="M1498.5 669.5q-1.1 -15.2 -6.8 -37.9" fill="none" stroke="#28251d" stroke-width="0.66" opacity=".72"/><path d="M1491.7 631.6q-1.4 -10.2 -7.3 -25.6" fill="none" stroke="#28251d" stroke-width="0.45" opacity=".72"/><path d="M1493.8 643.0q-4.9 -5.2 -13.2 -12.9" fill="none" stroke="#28251d" stroke-width="0.33" opacity=".72"/><path d="M1499.8 686.2q-8.2 -7.7 -18.6 -19.3" fill="none" stroke="#28251d" stroke-width="0.49" opacity=".72"/><path d="M1481.2 666.9q-6.1 -4.2 -15.2 -10.6" fill="none" stroke="#28251d" stroke-width="0.33" opacity=".72"/><path d="M1486.8 672.7q3.9 -5.1 1.5 -12.8" fill="none" stroke="#28251d" stroke-width="0.24" opacity=".72"/><path d="M1508.9 748.7q14.9 -13.4 19.8 -33.4" fill="none" stroke="#28251d" stroke-width="0.72" opacity=".72"/><path d="M1528.8 715.3q12.3 -8.8 15.5 -21.9" fill="none" stroke="#28251d" stroke-width="0.49" opacity=".72"/><path d="M1544.3 693.4q11.7 -4.6 14.4 -11.5" fill="none" stroke="#28251d" stroke-width="0.33" opacity=".72"/><path d="M1539.6 700.0q2.9 -5.1 -0.2 -12.9" fill="none" stroke="#28251d" stroke-width="0.24" opacity=".72"/><path d="M1522.8 725.3q13.9 -1.5 18.2 -3.9" fill="none" stroke="#28251d" stroke-width="0.36" opacity=".72"/><path d="M1541.1 721.5q10.4 -1.4 12.4 -3.5" fill="none" stroke="#28251d" stroke-width="0.24" opacity=".72"/><path d="M1535.6 722.6q5.5 -3.2 4.2 -7.9" fill="none" stroke="#28251d" stroke-width="0.18" opacity=".72"/><path d="M1534.8 836.8q-26.6 -10.9 -49.3 -27.2" fill="none" stroke="#28251d" stroke-width="1.05" opacity=".72"/><path d="M1485.5 809.6q-17.1 -7.9 -33.5 -19.7" fill="none" stroke="#28251d" stroke-width="0.72" opacity=".72"/><path d="M1452.0 789.9q-9.9 -6.4 -21.5 -16.0" fill="none" stroke="#28251d" stroke-width="0.49" opacity=".72"/><path d="M1430.5 773.9q-5.7 -4.6 -14.5 -11.5" fill="none" stroke="#28251d" stroke-width="0.33" opacity=".72"/><path d="M1436.9 778.7q2.6 -5.1 -0.7 -12.8" fill="none" stroke="#28251d" stroke-width="0.24" opacity=".72"/><path d="M1462.0 795.8q-8.1 1.1 -18.5 2.7" fill="none" stroke="#28251d" stroke-width="0.36" opacity=".72"/><path d="M1443.6 798.5q-4.4 1.4 -12.4 3.4" fill="none" stroke="#28251d" stroke-width="0.24" opacity=".72"/><path d="M1449.1 797.7q-0.0 3.0 -5.0 7.4" fill="none" stroke="#28251d" stroke-width="0.18" opacity=".72"/><path d="M1500.3 817.7q-1.8 -10.3 -7.9 -25.8" fill="none" stroke="#28251d" stroke-width="0.53" opacity=".72"/><path d="M1492.3 791.9q-2.5 -6.5 -9.2 -16.2" fill="none" stroke="#28251d" stroke-width="0.36" opacity=".72"/><path d="M1483.2 775.7q-1.6 -4.2 -7.6 -10.4" fill="none" stroke="#28251d" stroke-width="0.24" opacity=".72"/><path d="M1485.9 780.5q4.3 -3.5 2.2 -8.7" fill="none" stroke="#28251d" stroke-width="0.18" opacity=".72"/><path d="M1494.7 799.6q6.9 -4.5 6.4 -11.3" fill="none" stroke="#28251d" stroke-width="0.26" opacity=".72"/><path d="M1501.1 788.4q4.4 -3.5 2.3 -8.6" fill="none" stroke="#28251d" stroke-width="0.18" opacity=".72"/><path d="M1499.2 791.8q6.5 -0.8 5.9 -2.0" fill="none" stroke="#28251d" stroke-width="0.13" opacity=".72"/><path d="M1573.0 964.1q26.0 -28.8 38.3 -72.1" fill="none" stroke="#28251d" stroke-width="1.55" opacity=".72"/><path d="M1611.2 892.0q23.8 -17.8 34.6 -44.4" fill="none" stroke="#28251d" stroke-width="1.05" opacity=".72"/><path d="M1645.9 847.7q15.7 -13.0 21.2 -32.5" fill="none" stroke="#28251d" stroke-width="0.72" opacity=".72"/><path d="M1667.1 815.1q14.7 -7.3 19.5 -18.4" fill="none" stroke="#28251d" stroke-width="0.49" opacity=".72"/><path d="M1686.6 796.8q11.2 -5.0 13.7 -12.4" fill="none" stroke="#28251d" stroke-width="0.33" opacity=".72"/><path d="M1680.8 802.3q5.1 -5.0 3.5 -12.4" fill="none" stroke="#28251d" stroke-width="0.24" opacity=".72"/><path d="M1660.7 824.9q0.9 -7.3 -3.4 -18.3" fill="none" stroke="#28251d" stroke-width="0.36" opacity=".72"/><path d="M1657.3 806.6q0.9 -5.0 -3.5 -12.4" fill="none" stroke="#28251d" stroke-width="0.24" opacity=".72"/><path d="M1658.4 812.1q-1.2 -2.2 -7.1 -5.5" fill="none" stroke="#28251d" stroke-width="0.18" opacity=".72"/><path d="M1635.5 861.0q19.2 -0.2 27.0 -0.6" fill="none" stroke="#28251d" stroke-width="0.53" opacity=".72"/><path d="M1662.5 860.4q14.1 -0.9 18.5 -2.3" fill="none" stroke="#28251d" stroke-width="0.36" opacity=".72"/><path d="M1681.0 858.1q10.7 0.3 12.8 0.7" fill="none" stroke="#28251d" stroke-width="0.24" opacity=".72"/><path d="M1675.5 858.8q7.4 -2.1 7.3 -5.2" fill="none" stroke="#28251d" stroke-width="0.18" opacity=".72"/><path d="M1654.4 860.6q9.6 2.8 10.9 7.0" fill="none" stroke="#28251d" stroke-width="0.26" opacity=".72"/><path d="M1665.3 867.5q7.1 2.3 6.8 5.9" fill="none" stroke="#28251d" stroke-width="0.18" opacity=".72"/><path d="M1662.1 865.5q6.7 -0.3 6.2 -0.7" fill="none" stroke="#28251d" stroke-width="0.13" opacity=".72"/><path d="M1599.8 913.7q24.7 -6.1 36.1 -15.2" fill="none" stroke="#28251d" stroke-width="0.78" opacity=".72"/><path d="M1635.9 898.5q18.5 -3.1 25.9 -7.7" fill="none" stroke="#28251d" stroke-width="0.53" opacity=".72"/><path d="M1661.8 890.8q14.0 -1.3 18.4 -3.3" fill="none" stroke="#28251d" stroke-width="0.36" opacity=".72"/><path d="M1680.1 887.5q10.2 -1.9 11.9 -4.8" fill="none" stroke="#28251d" stroke-width="0.24" opacity=".72"/><path d="M1674.6 888.5q6.5 -2.7 5.8 -6.8" fill="none" stroke="#28251d" stroke-width="0.18" opacity=".72"/><path d="M1654.0 893.1q10.2 1.9 12.1 4.8" fill="none" stroke="#28251d" stroke-width="0.26" opacity=".72"/><path d="M1666.1 897.9q7.3 2.2 7.1 5.4" fill="none" stroke="#28251d" stroke-width="0.18" opacity=".72"/><path d="M1662.4 896.4q6.4 -1.1 5.6 -2.7" fill="none" stroke="#28251d" stroke-width="0.13" opacity=".72"/><path d="M1625.0 903.1q8.7 -6.5 9.6 -16.2" fill="none" stroke="#28251d" stroke-width="0.39" opacity=".72"/><path d="M1634.6 886.9q6.3 -4.7 5.5 -11.7" fill="none" stroke="#28251d" stroke-width="0.26" opacity=".72"/><path d="M1640.1 875.1q6.1 -2.9 5.1 -7.3" fill="none" stroke="#28251d" stroke-width="0.18" opacity=".72"/><path d="M1638.5 878.7q6.3 -1.2 5.5 -2.9" fill="none" stroke="#28251d" stroke-width="0.13" opacity=".72"/><path d="M1631.7 891.7q2.2 -3.6 -1.3 -8.9" fill="none" stroke="#28251d" stroke-width="0.19" opacity=".72"/><path d="M1630.5 882.8q2.9 -2.5 -0.1 -6.2" fill="none" stroke="#28251d" stroke-width="0.13" opacity=".72"/><path d="M1630.9 885.5q4.0 -1.6 1.6 -4.0" fill="none" stroke="#28251d" stroke-width="0.10" opacity=".72"/><path d="M0.0 1080.0q53.8 -59.0 84.6 -147.5" fill="none" stroke="#28251d" stroke-width="3.10" opacity=".72"/><path d="M84.6 932.5q39.6 -40.1 61.0 -100.2" fill="none" stroke="#28251d" stroke-width="2.11" opacity=".72"/><path d="M145.6 832.3q39.2 -21.6 60.3 -54.0" fill="none" stroke="#28251d" stroke-width="1.43" opacity=".72"/><path d="M205.9 778.4q28.5 -14.5 42.6 -36.2" fill="none" stroke="#28251d" stroke-width="0.97" opacity=".72"/><path d="M248.5 742.2q22.7 -8.1 32.8 -20.2" fill="none" stroke="#28251d" stroke-width="0.66" opacity=".72"/><path d="M281.3 722.1q17.7 -4.1 24.5 -10.2" fill="none" stroke="#28251d" stroke-width="0.45" opacity=".72"/><path d="M271.4 728.1q13.9 1.2 18.2 3.1" fill="none" stroke="#28251d" stroke-width="0.33" opacity=".72"/><path d="M235.7 753.1q18.9 -1.7 26.4 -4.4" fill="none" stroke="#28251d" stroke-width="0.49" opacity=".72"/><path d="M262.1 748.7q14.1 0.3 18.5 0.6" fill="none" stroke="#28251d" stroke-width="0.33" opacity=".72"/><path d="M254.2 750.0q8.5 -3.6 9.1 -9.1" fill="none" stroke="#28251d" stroke-width="0.24" opacity=".72"/><path d="M187.8 794.6q6.7 -15.3 6.2 -38.3" fill="none" stroke="#28251d" stroke-width="0.72" opacity=".72"/><path d="M194.0 756.2q4.1 -10.7 1.9 -26.7" fill="none" stroke="#28251d" stroke-width="0.49" opacity=".72"/><path d="M195.9 729.5q5.9 -7.1 4.8 -17.9" fill="none" stroke="#28251d" stroke-width="0.33" opacity=".72"/><path d="M195.4 737.5q9.1 -3.1 10.2 -7.8" fill="none" stroke="#28251d" stroke-width="0.24" opacity=".72"/><path d="M192.2 767.7q-3.8 -5.9 -11.3 -14.9" fill="none" stroke="#28251d" stroke-width="0.36" opacity=".72"/><path d="M180.9 752.9q-2.6 -3.6 -9.3 -8.9" fill="none" stroke="#28251d" stroke-width="0.24" opacity=".72"/><path d="M184.3 757.3q4.0 -3.5 1.7 -8.8" fill="none" stroke="#28251d" stroke-width="0.18" opacity=".72"/><path d="M127.3 862.4q33.3 -10.0 50.5 -24.9" fill="none" stroke="#28251d" stroke-width="1.05" opacity=".72"/><path d="M177.8 837.5q21.2 -9.7 30.3 -24.3" fill="none" stroke="#28251d" stroke-width="0.72" opacity=".72"/><path d="M208.1 813.3q13.6 -8.1 17.7 -20.1" fill="none" stroke="#28251d" stroke-width="0.49" opacity=".72"/><path d="M225.8 793.1q8.8 -6.3 9.6 -15.8" fill="none" stroke="#28251d" stroke-width="0.33" opacity=".72"/><path d="M220.5 799.2q2.9 -5.1 -0.1 -12.9" fill="none" stroke="#28251d" stroke-width="0.24" opacity=".72"/><path d="M199.0 820.5q14.2 0.5 18.6 1.2" fill="none" stroke="#28251d" stroke-width="0.36" opacity=".72"/><path d="M217.6 821.7q10.7 -0.7 12.8 -1.7" fill="none" stroke="#28251d" stroke-width="0.24" opacity=".72"/><path d="M212.0 821.4q7.2 2.3 7.0 5.6" fill="none" stroke="#28251d" stroke-width="0.18" opacity=".72"/><path d="M162.6 845.0q17.8 4.4 24.6 11.1" fill="none" stroke="#28251d" stroke-width="0.53" opacity=".72"/><path d="M187.3 856.1q13.2 3.1 16.9 7.8" fill="none" stroke="#28251d" stroke-width="0.36" opacity=".72"/><path d="M204.2 863.9q9.0 3.2 10.1 8.0" fill="none" stroke="#28251d" stroke-width="0.24" opacity=".72"/><path d="M199.1 861.5q8.3 -0.4 8.9 -1.1" fill="none" stroke="#28251d" stroke-width="0.18" opacity=".72"/><path d="M179.9 852.7q5.2 5.0 3.6 12.5" fill="none" stroke="#28251d" stroke-width="0.26" opacity=".72"/><path d="M183.5 865.2q2.9 3.6 -0.1 8.9" fill="none" stroke="#28251d" stroke-width="0.18" opacity=".72"/><path d="M182.4 861.5q6.3 1.2 5.4 3.0" fill="none" stroke="#28251d" stroke-width="0.13" opacity=".72"/><path d="M59.2 976.8q-0.9 -32.5 -6.4 -81.3" fill="none" stroke="#28251d" stroke-width="1.55" opacity=".72"/><path d="M52.8 895.4q4.6 -22.5 2.7 -56.2" fill="none" stroke="#28251d" stroke-width="1.05" opacity=".72"/><path d="M55.5 839.2q8.7 -15.1 9.4 -37.7" fill="none" stroke="#28251d" stroke-width="0.72" opacity=".72"/><path d="M64.9 801.5q9.3 -9.9 10.5 -24.7" fill="none" stroke="#28251d" stroke-width="0.49" opacity=".72"/><path d="M75.4 776.8q8.4 -6.5 9.0 -16.2" fill="none" stroke="#28251d" stroke-width="0.33" opacity=".72"/><path d="M72.2 784.2q9.3 -3.0 10.5 -7.4" fill="none" stroke="#28251d" stroke-width="0.24" opacity=".72"/><path d="M62.0 812.8q12.4 -4.1 15.7 -10.1" fill="none" stroke="#28251d" stroke-width="0.36" opacity=".72"/><path d="M77.7 802.7q9.1 -3.1 10.2 -7.8" fill="none" stroke="#28251d" stroke-width="0.24" opacity=".72"/><path d="M73.0 805.7q4.3 -3.5 2.1 -8.7" fill="none" stroke="#28251d" stroke-width="0.18" opacity=".72"/><path d="M54.6 856.1q-6.3 -8.8 -15.6 -22.1" fill="none" stroke="#28251d" stroke-width="0.53" opacity=".72"/><path d="M39.1 834.0q-2.0 -6.7 -8.3 -16.7" fill="none" stroke="#28251d" stroke-width="0.36" opacity=".72"/><path d="M30.8 817.3q0.4 -4.8 -4.4 -12.1" fill="none" stroke="#28251d" stroke-width="0.24" opacity=".72"/><path d="M33.3 822.3q4.2 -3.5 1.9 -8.7" fill="none" stroke="#28251d" stroke-width="0.18" opacity=".72"/><path d="M43.8 840.6q3.1 -5.2 0.2 -13.0" fill="none" stroke="#28251d" stroke-width="0.26" opacity=".72"/><path d="M44.0 827.6q1.5 -3.4 -2.5 -8.6" fill="none" stroke="#28251d" stroke-width="0.18" opacity=".72"/><path d="M43.9 831.5q0.4 -1.8 -4.4 -4.4" fill="none" stroke="#28251d" stroke-width="0.13" opacity=".72"/><path d="M54.7 919.8q17.7 -12.2 24.5 -30.6" fill="none" stroke="#28251d" stroke-width="0.78" opacity=".72"/><path d="M79.2 889.3q14.6 -7.6 19.3 -19.0" fill="none" stroke="#28251d" stroke-width="0.53" opacity=".72"/><path d="M98.4 870.3q12.4 -4.0 15.7 -10.0" fill="none" stroke="#28251d" stroke-width="0.36" opacity=".72"/><path d="M114.2 860.3q10.1 -2.0 11.9 -4.9" fill="none" stroke="#28251d" stroke-width="0.24" opacity=".72"/><path d="M109.4 863.3q8.4 0.1 8.9 0.2" fill="none" stroke="#28251d" stroke-width="0.18" opacity=".72"/><path d="M92.7 876.0q10.8 0.3 13.0 0.7" fill="none" stroke="#28251d" stroke-width="0.26" opacity=".72"/><path d="M105.6 876.7q8.4 0.2 8.9 0.4" fill="none" stroke="#28251d" stroke-width="0.18" opacity=".72"/><path d="M101.7 876.5q5.4 1.9 3.9 4.8" fill="none" stroke="#28251d" stroke-width="0.13" opacity=".72"/><path d="M71.8 898.4q14.1 -1.3 18.5 -3.3" fill="none" stroke="#28251d" stroke-width="0.39" opacity=".72"/><path d="M90.3 895.1q10.2 -2.0 12.0 -5.0" fill="none" stroke="#28251d" stroke-width="0.26" opacity=".72"/><path d="M102.3 890.1q8.3 -0.7 8.8 -1.7" fill="none" stroke="#28251d" stroke-width="0.18" opacity=".72"/><path d="M98.7 891.6q6.3 1.1 5.6 2.8" fill="none" stroke="#28251d" stroke-width="0.13" opacity=".72"/><path d="M84.8 896.1q7.2 -2.3 6.9 -5.8" fill="none" stroke="#28251d" stroke-width="0.19" opacity=".72"/><path d="M91.7 890.3q6.0 -1.4 5.1 -3.6" fill="none" stroke="#28251d" stroke-width="0.13" opacity=".72"/><path d="M89.6 892.1q5.6 -0.3 4.3 -0.8" fill="none" stroke="#28251d" stroke-width="0.10" opacity=".72"/></svg>