<svg xmlns="http://www.w3.org/2000/svg" viewBox="0 0 1500 1000" fill="none" stroke="#76352e" stroke-width=".7"><g opacity=".3"><path d="M17 12v976M11 24h1477M1482 12v978M10 975h1478"/><g transform="translate(1245 170)"><circle r="130"/><circle r="109"/><path d="m0-145 125 217H-125Zm0 290L-125-72h250ZM-149 0H149M0-150V150M-100-100l200 200M-100 100l200-200"/><circle r="26"/><path d="M0-45v90M-18-16h36" stroke-width="1.5"/></g><g transform="translate(76 887)"><circle r="54"/><path d="m0-63 55 96H-55ZM-76 0H76M0-77V77M-12-54h24M-12 54h24"/></g><path d="M1462 440v380m-12-360h24m-18 46h12m-18 54h24m-18 54h12m-18 54h24m-18 54h12m-18 54h24M12 55h26M26 42v26M12 930h26M26 917v26"/></g><g stroke="#3e3021" opacity=".12"><path d="m780 23-110 170M850 980l270-340M30 890l144-180M1455 220l-48 60"/></g></svg>
