<svg xmlns="http://www.w3.org/2000/svg" viewBox="0 0 1600 1080" preserveAspectRatio="none"><path d="M4.7 690.6l-2.8 2.6" stroke="#392b22" stroke-width="1.7" opacity="0.47"/><path d="M7.2 963.6l-4.7 4.1" stroke="#392b22" stroke-width="0.8" opacity="0.40"/><path d="M11.0 28.7l0.4 6.8" stroke="#392b22" stroke-width="0.8" opacity="0.44"/><path d="M13.7 874.2l2.0 2.2" stroke="#392b22" stroke-width="1.0" opacity="0.26"/><path d="M1.6 1033.8l-4.0 10.1" stroke="#392b22" stroke-width="1.8" opacity="0.44"/><path d="M9.1 871.7l4.7 19.5" stroke="#392b22" stroke-width="1.0" opacity="0.42"/><path d="M14.6 895.8l0.8 16.8" stroke="#392b22" stroke-width="1.6" opacity="0.22"/><path d="M1.4 246.1l-2.7 8.9" stroke="#392b22" stroke-width="0.6" opacity="0.31"/><path d="M6.3 686.5l-2.9 10.8" stroke="#392b22" stroke-width="0.9" opacity="0.57"/><path d="M2.9 699.9l2.3 16.6" stroke="#392b22" stroke-width="0.7" opacity="0.35"/><path d="M9.5 1068.7l1.8 17.4" stroke="#392b22" stroke-width="1.8" opacity="0.51"/><path d="M5.4 247.4l-2.3 2.8" stroke="#392b22" stroke-width="0.8" opacity="0.58"/><path d="M11.1 946.5l-1.0 9.6" stroke="#392b22" stroke-width="2.0" opacity="0.38"/><path d="M9.5 286.1l-2.4 7.9" stroke="#392b22" stroke-width="1.4" opacity="0.56"/><path d="M17.0 431.4l0.1 7.3" stroke="#392b22" stroke-width="0.6" opacity="0.22"/><path d="M13.5 118.4l-0.8 17.1" stroke="#392b22" stroke-width="0.5" opacity="0.35"/><path d="M16.5 1075.8l3.6 14.7" stroke="#392b22" stroke-width="0.4" opacity="0.49"/><path d="M4.5 736.2l1.4 14.9" stroke="#392b22" stroke-width="0.6" opacity="0.37"/><path d="M14.9 490.0l-2.4 24.9" stroke="#392b22" stroke-width="1.3" opacity="0.27"/><path d="M5.1 985.6l1.4 22.9" stroke="#392b22" stroke-width="1.4" opacity="0.26"/><path d="M13.2 823.5l0.3 14.9" stroke="#392b22" stroke-width="0.4" opacity="0.33"/><path d="M14.9 21.0l3.3 24.3" stroke="#392b22" stroke-width="0.9" opacity="0.22"/><path d="M1.5 948.3l-0.1 24.7" stroke="#392b22" stroke-width="0.5" opacity="0.50"/><path d="M8.1 827.1l0.5 5.1" stroke="#392b22" stroke-width="0.9" opacity="0.55"/><path d="M9.2 457.0l2.3 7.1" stroke="#392b22" stroke-width="0.7" opacity="0.32"/><path d="M7.4 1074.8l0.2 17.6" stroke="#392b22" stroke-width="0.6" opacity="0.29"/><path d="M3.9 365.1l-2.8 16.1" stroke="#392b22" stroke-width="0.5" opacity="0.45"/><path d="M14.6 247.3l-4.3 23.7" stroke="#392b22" stroke-width="0.8" opacity="0.47"/><path d="M15.9 231.4l0.7 5.2" stroke="#392b22" stroke-width="1.2" opacity="0.51"/><path d="M1.6 872.1l-0.7 6.6" stroke="#392b22" stroke-width="1.1" opacity="0.39"/><path d="M16.7 787.4l-4.0 18.2" stroke="#392b22" stroke-width="1.1" opacity="0.34"/><path d="M3.2 930.6l-0.5 8.0" stroke="#392b22" stroke-width="1.1" opacity="0.31"/><path d="M7.5 269.8l3.6 24.2" stroke="#392b22" stroke-width="1.3" opacity="0.22"/><path d="M16.5 1079.2l4.3 22.1" stroke="#392b22" stroke-width="1.8" opacity="0.27"/><path d="M6.8 524.5l-4.4 7.1" stroke="#392b22" stroke-width="1.0" opacity="0.59"/><path d="M7.7 286.4l-0.8 20.8" stroke="#392b22" stroke-width="2.0" opacity="0.60"/><path d="M2.6 600.2l-2.0 19.2" stroke="#392b22" stroke-width="2.0" opacity="0.43"/><path d="M1.0 585.6l0.8 20.0" stroke="#392b22" stroke-width="1.3" opacity="0.54"/><path d="M1.4 170.0l-3.1 25.1" stroke="#392b22" stroke-width="1.4" opacity="0.47"/><path d="M15.1 254.0l-2.5 4.9" stroke="#392b22" stroke-width="1.4" opacity="0.45"/><path d="M8.9 452.8l4.3 16.0" stroke="#392b22" stroke-width="0.7" opacity="0.49"/><path d="M11.4 257.8l-2.0 11.5" stroke="#392b22" stroke-width="0.9" opacity="0.50"/><path d="M17.0 78.3l5.0 13.0" stroke="#392b22" stroke-width="0.5" opacity="0.29"/><path d="M15.0 286.4l3.8 24.4" stroke="#392b22" stroke-width="1.0" opacity="0.26"/><path d="M10.4 900.4l4.9 18.9" stroke="#392b22" stroke-width="1.5" opacity="0.20"/><path d="M11.3 882.5l4.4 9.2" stroke="#392b22" stroke-width="0.6" opacity="0.25"/><path d="M4.6 115.6l1.0 15.3" stroke="#392b22" stroke-width="1.6" opacity="0.28"/><path d="M8.3 685.0l4.1 8.3" stroke="#392b22" stroke-width="1.8" opacity="0.24"/><path d="M0.1 457.5l2.7 8.6" stroke="#392b22" stroke-width="1.5" opacity="0.30"/><path d="M7.3 800.5l-4.9 15.2" stroke="#392b22" stroke-width="0.5" opacity="0.55"/><path d="M14.2 976.2l0.8 15.1" stroke="#392b22" stroke-width="0.7" opacity="0.25"/><path d="M13.5 332.9l3.6 23.6" stroke="#392b22" stroke-width="1.9" opacity="0.28"/><path d="M13.3 269.5l3.8 4.5" stroke="#392b22" stroke-width="1.1" opacity="0.45"/><path d="M14.7 166.9l4.8 24.3" stroke="#392b22" stroke-width="1.8" opacity="0.55"/><path d="M5.6 26.8l4.3 19.7" stroke="#392b22" stroke-width="1.8" opacity="0.55"/><path d="M1586.6 875.6l-3.9 8.4" stroke="#392b22" stroke-width="1.9" opacity="0.54"/><path d="M1592.2 240.2l-1.9 21.6" stroke="#392b22" stroke-width="1.8" opacity="0.29"/><path d="M1594.4 25.6l3.6 6.6" stroke="#392b22" stroke-width="2.0" opacity="0.31"/><path d="M1583.3 692.8l0.4 11.6" stroke="#392b22" stroke-width="2.0" opacity="0.25"/><path d="M1583.6 1048.0l-2.3 6.3" stroke="#392b22" stroke-width="0.6" opacity="0.37"/><path d="M1589.7 786.8l0.1 9.5" stroke="#392b22" stroke-width="1.1" opacity="0.43"/><path d="M1600.0 275.1l4.3 19.0" stroke="#392b22" stroke-width="1.3" opacity="0.49"/><path d="M1593.8 801.3l-4.3 18.1" stroke="#392b22" stroke-width="1.5" opacity="0.33"/><path d="M1587.8 339.0l-2.0 22.4" stroke="#392b22" stroke-width="0.9" opacity="0.36"/><path d="M1597.8 434.6l-0.8 9.1" stroke="#392b22" stroke-width="2.0" opacity="0.47"/><path d="M1594.9 975.0l0.5 16.8" stroke="#392b22" stroke-width="0.4" opacity="0.31"/><path d="M1588.9 464.3l-0.4 15.9" stroke="#392b22" stroke-width="1.2" opacity="0.29"/><path d="M1586.5 511.0l-3.3 23.6" stroke="#392b22" stroke-width="0.5" opacity="0.41"/><path d="M1586.1 683.6l2.5 10.0" stroke="#392b22" stroke-width="1.5" opacity="0.29"/><path d="M1595.8 215.1l-0.2 2.6" stroke="#392b22" stroke-width="1.8" opacity="0.23"/><path d="M1596.7 447.6l2.0 17.1" stroke="#392b22" stroke-width="1.2" opacity="0.30"/><path d="M1587.2 708.5l2.7 2.1" stroke="#392b22" stroke-width="0.6" opacity="0.37"/><path d="M1591.2 190.0l-4.5 25.0" stroke="#392b22" stroke-width="0.8" opacity="0.54"/><path d="M1588.7 493.0l4.9 21.2" stroke="#392b22" stroke-width="1.4" opacity="0.58"/><path d="M1587.8 962.7l0.0 16.7" stroke="#392b22" stroke-width="1.8" opacity="0.42"/><path d="M1591.9 969.0l-2.4 19.8" stroke="#392b22" stroke-width="0.8" opacity="0.46"/><path d="M1589.3 827.1l-2.3 14.5" stroke="#392b22" stroke-width="0.5" opacity="0.31"/><path d="M1590.8 293.5l-3.6 9.7" stroke="#392b22" stroke-width="0.8" opacity="0.48"/><path d="M1593.1 762.9l0.4 3.5" stroke="#392b22" stroke-width="1.1" opacity="0.28"/><path d="M1590.1 453.8l2.0 23.7" stroke="#392b22" stroke-width="1.9" opacity="0.51"/><path d="M1594.0 410.8l2.5 2.1" stroke="#392b22" stroke-width="1.9" opacity="0.58"/><path d="M1590.7 452.5l1.0 19.9" stroke="#392b22" stroke-width="0.8" opacity="0.29"/><path d="M1594.3 470.7l1.8 2.7" stroke="#392b22" stroke-width="1.1" opacity="0.27"/><path d="M1589.4 504.8l-4.7 5.1" stroke="#392b22" stroke-width="1.1" opacity="0.43"/><path d="M1597.7 29.3l-0.4 17.4" stroke="#392b22" stroke-width="0.5" opacity="0.35"/><path d="M1587.1 228.6l-1.2 9.8" stroke="#392b22" stroke-width="1.7" opacity="0.53"/><path d="M1599.7 272.5l0.4 4.0" stroke="#392b22" stroke-width="2.1" opacity="0.34"/><path d="M1588.9 702.2l2.5 20.7" stroke="#392b22" stroke-width="2.0" opacity="0.28"/><path d="M1597.9 22.0l1.7 5.7" stroke="#392b22" stroke-width="1.4" opacity="0.29"/><path d="M1597.1 755.4l1.1 20.4" stroke="#392b22" stroke-width="1.7" opacity="0.25"/><path d="M1598.2 884.8l-4.7 25.2" stroke="#392b22" stroke-width="0.9" opacity="0.47"/><path d="M1587.8 1034.8l-4.2 11.5" stroke="#392b22" stroke-width="1.6" opacity="0.45"/><path d="M1585.5 110.1l1.0 20.5" stroke="#392b22" stroke-width="0.6" opacity="0.59"/><path d="M1592.7 845.2l-1.3 10.3" stroke="#392b22" stroke-width="1.3" opacity="0.34"/><path d="M1598.2 917.5l4.6 21.7" stroke="#392b22" stroke-width="1.5" opacity="0.53"/><path d="M1587.5 763.9l4.7 12.5" stroke="#392b22" stroke-width="0.9" opacity="0.52"/><path d="M1592.6 581.2l2.3 13.6" stroke="#392b22" stroke-width="0.9" opacity="0.54"/><path d="M1585.0 897.2l-2.6 4.1" stroke="#392b22" stroke-width="1.2" opacity="0.44"/><path d="M1585.5 409.3l-3.2 2.7" stroke="#392b22" stroke-width="0.8" opacity="0.52"/><path d="M1588.1 367.6l-2.2 23.1" stroke="#392b22" stroke-width="0.4" opacity="0.58"/><path d="M1591.7 92.5l2.6 19.3" stroke="#392b22" stroke-width="1.6" opacity="0.46"/><path d="M1598.4 530.1l-2.8 21.0" stroke="#392b22" stroke-width="1.6" opacity="0.32"/><path d="M1591.0 628.1l-0.7 13.4" stroke="#392b22" stroke-width="1.7" opacity="0.33"/><path d="M1595.7 759.1l-3.8 8.5" stroke="#392b22" stroke-width="0.7" opacity="0.25"/><path d="M1596.9 578.7l-2.8 20.3" stroke="#392b22" stroke-width="1.2" opacity="0.49"/><path d="M1595.2 1054.7l-4.0 14.6" stroke="#392b22" stroke-width="0.7" opacity="0.29"/><path d="M1590.9 193.8l-2.3 2.3" stroke="#392b22" stroke-width="2.1" opacity="0.42"/><path d="M1585.2 753.2l-0.1 5.0" stroke="#392b22" stroke-width="1.9" opacity="0.43"/><path d="M1596.9 506.9l-4.5 12.6" stroke="#392b22" stroke-width="2.0" opacity="0.39"/><path d="M1598.7 887.9l1.3 11.6" stroke="#392b22" stroke-width="0.5" opacity="0.26"/><circle cx="900.5" cy="5.2" r="1.1" fill="#392b22" opacity=".35"/><circle cx="665.9" cy="1073.5" r="1.0" fill="#392b22" opacity=".35"/><circle cx="708.4" cy="1079.8" r="1.2" fill="#392b22" opacity=".35"/><circle cx="96.4" cy="16.3" r="1.2" fill="#392b22" opacity=".35"/><circle cx="423.4" cy="1.4" r="0.5" fill="#392b22" opacity=".35"/><circle cx="653.6" cy="11.7" r="0.6" fill="#392b22" opacity=".35"/><circle cx="1131.1" cy="12.0" r="1.7" fill="#392b22" opacity=".35"/><circle cx="1260.5" cy="10.6" r="0.9" fill="#392b22" opacity=".35"/><circle cx="871.3" cy="11.0" r="0.4" fill="#392b22" opacity=".35"/><circle cx="265.5" cy="1075.7" r="1.0" fill="#392b22" opacity=".35"/><circle cx="749.9" cy="1069.8" r="1.1" fill="#392b22" opacity=".35"/><circle cx="790.1" cy="1063.7" r="1.4" fill="#392b22" opacity=".35"/><circle cx="965.9" cy="0.4" r="1.8" fill="#392b22" opacity=".35"/><circle cx="1075.7" cy="4.6" r="1.0" fill="#392b22" opacity=".35"/><circle cx="1042.4" cy="1066.1" r="1.3" fill="#392b22" opacity=".35"/><circle cx="786.8" cy="1068.9" r="0.8" fill="#392b22" opacity=".35"/><circle cx="167.4" cy="1070.0" r="0.7" fill="#392b22" opacity=".35"/><circle cx="1512.3" cy="1072.4" r="0.4" fill="#392b22" opacity=".35"/><circle cx="403.8" cy="2.0" r="1.3" fill="#392b22" opacity=".35"/><circle cx="868.1" cy="1066.2" r="1.2" fill="#392b22" opacity=".35"/><circle cx="797.6" cy="1063.9" r="1.1" fill="#392b22" opacity=".35"/><circle cx="1484.3" cy="7.4" r="0.3" fill="#392b22" opacity=".35"/><circle cx="1008.0" cy="1075.1" r="1.1" fill="#392b22" opacity=".35"/><circle cx="883.6" cy="1.6" r="1.0" fill="#392b22" opacity=".35"/><circle cx="187.9" cy="1071.5" r="1.1" fill="#392b22" opacity=".35"/><circle cx="437.5" cy="14.2" r="1.0" fill="#392b22" opacity=".35"/><circle cx="231.4" cy="3.2" r="1.6" fill="#392b22" opacity=".35"/><circle cx="442.0" cy="1070.1" r="1.5" fill="#392b22" opacity=".35"/><circle cx="452.5" cy="1073.0" r="1.6" fill="#392b22" opacity=".35"/><circle cx="714.5" cy="1068.7" r="1.0" fill="#392b22" opacity=".35"/><circle cx="514.8" cy="1074.9" r="0.7" fill="#392b22" opacity=".35"/><circle cx="1240.9" cy="1075.7" r="0.9" fill="#392b22" opacity=".35"/><circle cx="1061.9" cy="1079.7" r="1.7" fill="#392b22" opacity=".35"/><circle cx="202.0" cy="16.4" r="1.6" fill="#392b22" opacity=".35"/><circle cx="704.5" cy="8.9" r="0.9" fill="#392b22" opacity=".35"/><circle cx="1047.7" cy="1071.0" r="0.8" fill="#392b22" opacity=".35"/><circle cx="1108.3" cy="1077.5" r="1.7" fill="#392b22" opacity=".35"/><circle cx="1002.9" cy="15.1" r="1.2" fill="#392b22" opacity=".35"/><circle cx="375.6" cy="11.6" r="1.4" fill="#392b22" opacity=".35"/><circle cx="694.4" cy="1.7" r="1.0" fill="#392b22" opacity=".35"/><circle cx="1110.4" cy="15.4" r="0.7" fill="#392b22" opacity=".35"/><circle cx="599.7" cy="2.5" r="0.6" fill="#392b22" opacity=".35"/><circle cx="126.3" cy="14.8" r="1.0" fill="#392b22" opacity=".35"/><circle cx="933.1" cy="1073.8" r="0.7" fill="#392b22" opacity=".35"/><circle cx="15.0" cy="13.7" r="0.4" fill="#392b22" opacity=".35"/><circle cx="1512.4" cy="1068.1" r="1.3" fill="#392b22" opacity=".35"/><circle cx="730.9" cy="1080.0" r="0.5" fill="#392b22" opacity=".35"/><circle cx="610.2" cy="1068.0" r="0.3" fill="#392b22" opacity=".35"/><circle cx="1328.1" cy="6.7" r="1.7" fill="#392b22" opacity=".35"/><circle cx="1192.3" cy="14.2" r="1.2" fill="#392b22" opacity=".35"/><circle cx="563.7" cy="10.8" r="1.2" fill="#392b22" opacity=".35"/><circle cx="1445.4" cy="1068.3" r="0.4" fill="#392b22" opacity=".35"/><circle cx="583.8" cy="1078.5" r="1.4" fill="#392b22" opacity=".35"/><circle cx="281.0" cy="1072.2" r="1.1" fill="#392b22" opacity=".35"/><circle cx="1461.6" cy="1067.4" r="1.8" fill="#392b22" opacity=".35"/><circle cx="472.2" cy="1076.7" r="1.7" fill="#392b22" opacity=".35"/><circle cx="225.2" cy="1077.6" r="1.8" fill="#392b22" opacity=".35"/><circle cx="1287.3" cy="6.2" r="0.7" fill="#392b22" opacity=".35"/><circle cx="197.7" cy="1075.7" r="1.2" fill="#392b22" opacity=".35"/><circle cx="1315.9" cy="16.0" r="1.0" fill="#392b22" opacity=".35"/><circle cx="991.3" cy="16.0" r="1.3" fill="#392b22" opacity=".35"/><circle cx="1016.6" cy="1074.9" r="0.5" fill="#392b22" opacity=".35"/><circle cx="72.6" cy="0.6" r="0.4" fill="#392b22" opacity=".35"/><circle cx="1419.6" cy="1070.7" r="1.2" fill="#392b22" opacity=".35"/><circle cx="1162.6" cy="1074.1" r="1.2" fill="#392b22" opacity=".35"/><circle cx="1502.5" cy="4.8" r="1.0" fill="#392b22" opacity=".35"/><circle cx="1520.9" cy="1064.7" r="1.1" fill="#392b22" opacity=".35"/><circle cx="1564.5" cy="6.1" r="1.8" fill="#392b22" opacity=".35"/><circle cx="1518.4" cy="14.0" r="1.3" fill="#392b22" opacity=".35"/><circle cx="955.4" cy="0.4" r="1.8" fill="#392b22" opacity=".35"/><circle cx="1259.2" cy="3.5" r="1.2" fill="#392b22" opacity=".35"/><circle cx="1300.9" cy="4.0" r="0.7" fill="#392b22" opacity=".35"/><circle cx="1574.4" cy="16.8" r="0.5" fill="#392b22" opacity=".35"/><circle cx="1386.3" cy="2.2" r="1.2" fill="#392b22" opacity=".35"/><circle cx="25.2" cy="1065.2" r="1.1" fill="#392b22" opacity=".35"/><circle cx="1193.1" cy="8.1" r="1.0" fill="#392b22" opacity=".35"/><circle cx="354.5" cy="1075.4" r="1.0" fill="#392b22" opacity=".35"/><circle cx="1542.4" cy="1071.1" r="0.9" fill="#392b22" opacity=".35"/><circle cx="172.7" cy="12.1" r="0.8" fill="#392b22" opacity=".35"/><circle cx="237.3" cy="1073.6" r="0.9" fill="#392b22" opacity=".35"/><circle cx="955.8" cy="1071.6" r="0.4" fill="#392b22" opacity=".35"/><circle cx="1122.8" cy="14.5" r="0.9" fill="#392b22" opacity=".35"/><circle cx="1420.9" cy="1077.1" r="0.9" fill="#392b22" opacity=".35"/><circle cx="152.1" cy="1074.3" r="1.7" fill="#392b22" opacity=".35"/><circle cx="1098.9" cy="8.1" r="0.4" fill="#392b22" opacity=".35"/><circle cx="154.5" cy="12.6" r="1.2" fill="#392b22" opacity=".35"/><circle cx="898.5" cy="1065.1" r="1.6" fill="#392b22" opacity=".35"/><circle cx="1505.8" cy="7.2" r="1.8" fill="#392b22" opacity=".35"/><circle cx="960.7" cy="6.0" r="0.5" fill="#392b22" opacity=".35"/><circle cx="771.5" cy="1069.0" r="0.5" fill="#392b22" opacity=".35"/><circle cx="445.7" cy="3.8" r="1.2" fill="#392b22" opacity=".35"/><circle cx="1052.5" cy="1063.5" r="1.4" fill="#392b22" opacity=".35"/><circle cx="494.4" cy="5.8" r="1.1" fill="#392b22" opacity=".35"/><circle cx="641.3" cy="2.4" r="0.4" fill="#392b22" opacity=".35"/><circle cx="848.8" cy="6.4" r="0.9" fill="#392b22" opacity=".35"/><circle cx="1154.6" cy="13.2" r="1.6" fill="#392b22" opacity=".35"/><circle cx="248.9" cy="12.8" r="0.7" fill="#392b22" opacity=".35"/><circle cx="1059.1" cy="1070.5" r="0.6" fill="#392b22" opacity=".35"/><circle cx="819.8" cy="1064.9" r="1.1" fill="#392b22" opacity=".35"/><circle cx="493.5" cy="3.7" r="0.3" fill="#392b22" opacity=".35"/><circle cx="482.3" cy="1065.3" r="0.7" fill="#392b22" opacity=".35"/><circle cx="192.0" cy="8.5" r="0.9" fill="#392b22" opacity=".35"/><circle cx="1125.9" cy="1077.2" r="0.4" fill="#392b22" opacity=".35"/><circle cx="1378.8" cy="0.7" r="1.6" fill="#392b22" opacity=".35"/><circle cx="921.2" cy="1075.1" r="0.7" fill="#392b22" opacity=".35"/><circle cx="648.1" cy="1065.9" r="1.5" fill="#392b22" opacity=".35"/><circle cx="1471.6" cy="1.5" r="1.0" fill="#392b22" opacity=".35"/><circle cx="640.7" cy="1077.8" r="0.6" fill="#392b22" opacity=".35"/><circle cx="1246.6" cy="1.3" r="1.7" fill="#392b22" opacity=".35"/><circle cx="559.0" cy="12.4" r="0.7" fill="#392b22" opacity=".35"/><circle cx="234.3" cy="3.4" r="0.6" fill="#392b22" opacity=".35"/><circle cx="1236.6" cy="1075.8" r="1.3" fill="#392b22" opacity=".35"/><circle cx="1411.3" cy="1079.8" r="1.6" fill="#392b22" opacity=".35"/><circle cx="1003.5" cy="1064.2" r="1.2" fill="#392b22" opacity=".35"/><circle cx="1274.1" cy="10.1" r="0.8" fill="#392b22" opacity=".35"/><circle cx="723.1" cy="1.0" r="1.3" fill="#392b22" opacity=".35"/><circle cx="1563.8" cy="1073.1" r="1.0" fill="#392b22" opacity=".35"/><circle cx="886.9" cy="1078.2" r="1.7" fill="#392b22" opacity=".35"/><circle cx="914.7" cy="3.2" r="1.7" fill="#392b22" opacity=".35"/><circle cx="720.8" cy="13.8" r="1.1" fill="#392b22" opacity=".35"/><circle cx="276.1" cy="1070.4" r="1.1" fill="#392b22" opacity=".35"/><circle cx="975.7" cy="1078.6" r="0.9" fill="#392b22" opacity=".35"/><circle cx="541.4" cy="1076.4" r="0.4" fill="#392b22" opacity=".35"/><circle cx="151.2" cy="11.5" r="0.8" fill="#392b22" opacity=".35"/><circle cx="932.4" cy="1068.9" r="0.5" fill="#392b22" opacity=".35"/><circle cx="1134.1" cy="1072.5" r="1.5" fill="#392b22" opacity=".35"/><circle cx="1072.2" cy="14.1" r="1.3" fill="#392b22" opacity=".35"/><circle cx="677.5" cy="6.2" r="1.7" fill="#392b22" opacity=".35"/><circle cx="546.8" cy="13.0" r="0.5" fill="#392b22" opacity=".35"/><circle cx="473.3" cy="13.4" r="1.3" fill="#392b22" opacity=".35"/><circle cx="1402.2" cy="10.5" r="0.5" fill="#392b22" opacity=".35"/><circle cx="1330.2" cy="13.1" r="1.4" fill="#392b22" opacity=".35"/><circle cx="69.9" cy="1075.2" r="1.2" fill="#392b22" opacity=".35"/><circle cx="1203.8" cy="13.3" r="0.8" fill="#392b22" opacity=".35"/><circle cx="1293.8" cy="1077.2" r="1.3" fill="#392b22" opacity=".35"/><circle cx="912.7" cy="1076.1" r="1.1" fill="#392b22" opacity=".35"/><circle cx="669.9" cy="2.8" r="1.6" fill="#392b22" opacity=".35"/><circle cx="83.5" cy="8.2" r="1.4" fill="#392b22" opacity=".35"/><circle cx="825.5" cy="2.1" r="0.7" fill="#392b22" opacity=".35"/><circle cx="1448.5" cy="2.5" r="1.5" fill="#392b22" opacity=".35"/><circle cx="1415.4" cy="1070.1" r="1.1" fill="#392b22" opacity=".35"/><circle cx="377.2" cy="16.9" r="0.8" fill="#392b22" opacity=".35"/><circle cx="158.5" cy="12.1" r="0.5" fill="#392b22" opacity=".35"/><circle cx="459.0" cy="14.1" r="1.4" fill="#392b22" opacity=".35"/><circle cx="750.6" cy="10.5" r="0.7" fill="#392b22" opacity=".35"/><circle cx="1335.9" cy="1075.4" r="0.5" fill="#392b22" opacity=".35"/><circle cx="461.0" cy="1063.8" r="1.3" fill="#392b22" opacity=".35"/><circle cx="996.5" cy="1077.2" r="1.2" fill="#392b22" opacity=".35"/><circle cx="26.3" cy="8.8" r="0.7" fill="#392b22" opacity=".35"/><circle cx="2.5" cy="6.0" r="1.3" fill="#392b22" opacity=".35"/><circle cx="137.0" cy="16.6" r="0.9" fill="#392b22" opacity=".35"/><circle cx="752.2" cy="1079.7" r="1.4" fill="#392b22" opacity=".35"/><circle cx="571.4" cy="1.1" r="1.5" fill="#392b22" opacity=".35"/><circle cx="1176.3" cy="1063.8" r="1.5" fill="#392b22" opacity=".35"/><circle cx="280.1" cy="1070.9" r="1.2" fill="#392b22" opacity=".35"/><circle cx="1298.4" cy="1076.2" r="0.4" fill="#392b22" opacity=".35"/><circle cx="322.5" cy="1078.1" r="1.7" fill="#392b22" opacity=".35"/><circle cx="824.6" cy="1072.2" r="0.4" fill="#392b22" opacity=".35"/><circle cx="1035.0" cy="4.9" r="1.6" fill="#392b22" opacity=".35"/><circle cx="531.1" cy="1069.3" r="1.4" fill="#392b22" opacity=".35"/><circle cx="1431.4" cy="1079.6" r="1.3" fill="#392b22" opacity=".35"/><circle cx="587.8" cy="13.6" r="1.4" fill="#392b22" opacity=".35"/><circle cx="126.3" cy="1077.0" r="0.8" fill="#392b22" opacity=".35"/><circle cx="128.1" cy="1068.2" r="0.5" fill="#392b22" opacity=".35"/><circle cx="710.3" cy="1075.4" r="1.2" fill="#392b22" opacity=".35"/><circle cx="695.9" cy="10.9" r="0.4" fill="#392b22" opacity=".35"/><circle cx="1020.0" cy="6.2" r="1.7" fill="#392b22" opacity=".35"/><circle cx="228.4" cy="10.3" r="0.5" fill="#392b22" opacity=".35"/><circle cx="377.6" cy="11.0" r="1.2" fill="#392b22" opacity=".35"/><circle cx="1086.5" cy="16.1" r="1.2" fill="#392b22" opacity=".35"/><circle cx="847.1" cy="6.8" r="1.7" fill="#392b22" opacity=".35"/><circle cx="41.5" cy="3.2" r="0.7" fill="#392b22" opacity=".35"/><circle cx="416.5" cy="1079.9" r="1.3" fill="#392b22" opacity=".35"/><circle cx="1597.8" cy="3.4" r="1.0" fill="#392b22" opacity=".35"/><circle cx="1437.9" cy="1064.5" r="1.3" fill="#392b22" opacity=".35"/><circle cx="1135.3" cy="1067.9" r="1.6" fill="#392b22" opacity=".35"/><circle cx="1138.9" cy="1073.8" r="1.1" fill="#392b22" opacity=".35"/><circle cx="194.2" cy="1065.4" r="0.3" fill="#392b22" opacity=".35"/><circle cx="886.4" cy="6.3" r="1.2" fill="#392b22" opacity=".35"/><circle cx="137.9" cy="1080.0" r="1.1" fill="#392b22" opacity=".35"/><circle cx="1230.7" cy="1064.3" r="1.3" fill="#392b22" opacity=".35"/><circle cx="720.0" cy="11.6" r="1.5" fill="#392b22" opacity=".35"/><circle cx="206.5" cy="8.5" r="1.1" fill="#392b22" opacity=".35"/><circle cx="486.6" cy="2.8" r="0.8" fill="#392b22" opacity=".35"/><circle cx="1505.4" cy="1077.4" r="0.6" fill="#392b22" opacity=".35"/><circle cx="1530.2" cy="4.7" r="1.1" fill="#392b22" opacity=".35"/><circle cx="269.8" cy="1065.6" r="1.6" fill="#392b22" opacity=".35"/><circle cx="901.8" cy="14.0" r="1.7" fill="#392b22" opacity=".35"/><circle cx="1233.6" cy="1066.6" r="1.2" fill="#392b22" opacity=".35"/><circle cx="48.5" cy="1072.3" r="1.0" fill="#392b22" opacity=".35"/><circle cx="1287.5" cy="11.6" r="1.3" fill="#392b22" opacity=".35"/><circle cx="252.9" cy="1070.9" r="1.2" fill="#392b22" opacity=".35"/><circle cx="500.1" cy="1075.5" r="1.8" fill="#392b22" opacity=".35"/><circle cx="209.2" cy="1072.5" r="0.7" fill="#392b22" opacity=".35"/><circle cx="196.0" cy="7.6" r="0.7" fill="#392b22" opacity=".35"/><circle cx="614.6" cy="10.5" r="1.5" fill="#392b22" opacity=".35"/><circle cx="1494.0" cy="12.3" r="1.0" fill="#392b22" opacity=".35"/><circle cx="823.6" cy="8.5" r="0.4" fill="#392b22" opacity=".35"/><circle cx="629.2" cy="1067.1" r="0.4" fill="#392b22" opacity=".35"/><circle cx="450.2" cy="1077.3" r="0.7" fill="#392b22" opacity=".35"/><circle cx="13.1" cy="1065.3" r="1.4" fill="#392b22" opacity=".35"/><circle cx="1222.2" cy="6.2" r="0.8" fill="#392b22" opacity=".35"/><circle cx="461.8" cy="1070.7" r="1.5" fill="#392b22" opacity=".35"/><circle cx="997.2" cy="10.4" r="0.9" fill="#392b22" opacity=".35"/><circle cx="1271.8" cy="5.8" r="0.6" fill="#392b22" opacity=".35"/><circle cx="814.6" cy="8.5" r="1.4" fill="#392b22" opacity=".35"/><circle cx="1286.3" cy="8.8" r="0.8" fill="#392b22" opacity=".35"/><circle cx="980.9" cy="1079.8" r="1.2" fill="#392b22" opacity=".35"/><circle cx="811.7" cy="1071.3" r="1.0" fill="#392b22" opacity=".35"/><circle cx="26.6" cy="1064.9" r="1.2" fill="#392b22" opacity=".35"/><circle cx="1274.8" cy="12.3" r="1.2" fill="#392b22" opacity=".35"/><circle cx="424.8" cy="11.1" r="1.4" fill="#392b22" opacity=".35"/><circle cx="933.6" cy="1073.7" r="0.5" fill="#392b22" opacity=".35"/><circle cx="1089.2" cy="0.5" r="0.6" fill="#392b22" opacity=".35"/><circle cx="705.7" cy="7.1" r="0.9" fill="#392b22" opacity=".35"/><circle cx="1240.0" cy="15.6" r="1.4" fill="#392b22" opacity=".35"/><circle cx="829.9" cy="1080.0" r="1.1" fill="#392b22" opacity=".35"/><circle cx="502.0" cy="1078.5" r="1.1" fill="#392b22" opacity=".35"/><circle cx="1081.4" cy="1074.6" r="1.2" fill="#392b22" opacity=".35"/><circle cx="307.6" cy="4.2" r="1.7" fill="#392b22" opacity=".35"/><circle cx="1571.6" cy="1075.0" r="0.8" fill="#392b22" opacity=".35"/><circle cx="558.1" cy="1076.5" r="0.7" fill="#392b22" opacity=".35"/><circle cx="917.6" cy="1078.2" r="1.5" fill="#392b22" opacity=".35"/><circle cx="1527.4" cy="1067.9" r="1.7" fill="#392b22" opacity=".35"/><circle cx="126.4" cy="1074.2" r="0.6" fill="#392b22" opacity=".35"/><circle cx="1324.7" cy="1072.6" r="0.5" fill="#392b22" opacity=".35"/><circle cx="985.1" cy="10.0" r="1.3" fill="#392b22" opacity=".35"/><circle cx="84.0" cy="7.0" r="1.3" fill="#392b22" opacity=".35"/><circle cx="219.9" cy="16.4" r="0.9" fill="#392b22" opacity=".35"/><circle cx="1496.1" cy="14.9" r="1.4" fill="#392b22" opacity=".35"/><circle cx="459.6" cy="4.9" r="1.3" fill="#392b22" opacity=".35"/><circle cx="371.6" cy="12.6" r="1.7" fill="#392b22" opacity=".35"/><circle cx="280.1" cy="15.0" r="1.8" fill="#392b22" opacity=".35"/><circle cx="635.2" cy="1078.9" r="1.6" fill="#392b22" opacity=".35"/><circle cx="14.8" cy="1064.8" r="0.7" fill="#392b22" opacity=".35"/><circle cx="1582.6" cy="9.2" r="1.6" fill="#392b22" opacity=".35"/><circle cx="748.8" cy="3.3" r="1.4" fill="#392b22" opacity=".35"/><circle cx="1037.3" cy="1063.2" r="1.5" fill="#392b22" opacity=".35"/><circle cx="908.4" cy="1066.0" r="1.5" fill="#392b22" opacity=".35"/><circle cx="824.4" cy="1.5" r="1.8" fill="#392b22" opacity=".35"/><circle cx="763.9" cy="1063.1" r="0.7" fill="#392b22" opacity=".35"/><circle cx="1206.0" cy="16.2" r="0.7" fill="#392b22" opacity=".35"/><circle cx="575.3" cy="1074.4" r="0.8" fill="#392b22" opacity=".35"/><circle cx="648.7" cy="1078.2" r="1.3" fill="#392b22" opacity=".35"/><circle cx="1021.9" cy="16.0" r="0.6" fill="#392b22" opacity=".35"/><circle cx="213.7" cy="1075.7" r="0.9" fill="#392b22" opacity=".35"/><circle cx="878.8" cy="8.0" r="1.4" fill="#392b22" opacity=".35"/><circle cx="1088.5" cy="1076.4" r="1.1" fill="#392b22" opacity=".35"/><circle cx="578.9" cy="15.6" r="1.2" fill="#392b22" opacity=".35"/><circle cx="239.8" cy="5.6" r="1.3" fill="#392b22" opacity=".35"/><circle cx="1147.1" cy="1078.3" r="1.5" fill="#392b22" opacity=".35"/><circle cx="725.5" cy="8.7" r="1.1" fill="#392b22" opacity=".35"/><circle cx="1076.4" cy="1063.4" r="1.5" fill="#392b22" opacity=".35"/><circle cx="1193.3" cy="1063.8" r="1.4" fill="#392b22" opacity=".35"/><circle cx="865.9" cy="1078.2" r="0.3" fill="#392b22" opacity=".35"/><circle cx="654.2" cy="1076.0" r="0.9" fill="#392b22" opacity=".35"/><circle cx="1426.1" cy="1078.6" r="0.9" fill="#392b22" opacity=".35"/><circle cx="1092.4" cy="1072.2" r="0.5" fill="#392b22" opacity=".35"/><circle cx="1588.6" cy="6.7" r="1.6" fill="#392b22" opacity=".35"/><circle cx="1209.9" cy="1070.9" r="1.1" fill="#392b22" opacity=".35"/><circle cx="1317.4" cy="1068.9" r="0.6" fill="#392b22" opacity=".35"/><circle cx="1400.3" cy="1063.5" r="1.2" fill="#392b22" opacity=".35"/><circle cx="1498.0" cy="15.1" r="0.5" fill="#392b22" opacity=".35"/><circle cx="53.7" cy="10.2" r="0.7" fill="#392b22" opacity=".35"/><circle cx="70.8" cy="7.5" r="0.5" fill="#392b22" opacity=".35"/><circle cx="1589.6" cy="1078.6" r="1.2" fill="#392b22" opacity=".35"/><circle cx="1236.1" cy="13.9" r="1.8" fill="#392b22" opacity=".35"/><circle cx="834.0" cy="7.0" r="1.2" fill="#392b22" opacity=".35"/><circle cx="683.5" cy="1079.5" r="1.5" fill="#392b22" opacity=".35"/><circle cx="510.0" cy="1065.5" r="0.6" fill="#392b22" opacity=".35"/><circle cx="860.7" cy="4.1" r="1.5" fill="#392b22" opacity=".35"/><circle cx="1463.6" cy="9.6" r="0.9" fill="#392b22" opacity=".35"/><circle cx="408.0" cy="1064.3" r="1.6" fill="#392b22" opacity=".35"/><circle cx="147.9" cy="1066.2" r="0.9" fill="#392b22" opacity=".35"/><circle cx="968.0" cy="0.7" r="1.0" fill="#392b22" opacity=".35"/><circle cx="1391.2" cy="5.7" r="0.6" fill="#392b22" opacity=".35"/><circle cx="304.0" cy="1075.7" r="1.7" fill="#392b22" opacity=".35"/><circle cx="1113.0" cy="12.0" r="1.1" fill="#392b22" opacity=".35"/><circle cx="1240.8" cy="1072.1" r="0.8" fill="#392b22" opacity=".35"/><circle cx="575.4" cy="1070.9" r="1.4" fill="#392b22" opacity=".35"/><circle cx="512.4" cy="3.5" r="1.1" fill="#392b22" opacity=".35"/><circle cx="354.0" cy="1067.4" r="0.7" fill="#392b22" opacity=".35"/><circle cx="313.9" cy="3.9" r="1.0" fill="#392b22" opacity=".35"/><circle cx="1047.4" cy="1067.4" r="1.7" fill="#392b22" opacity=".35"/><circle cx="1026.7" cy="1065.9" r="0.6" fill="#392b22" opacity=".35"/><circle cx="1152.5" cy="8.3" r="1.1" fill="#392b22" opacity=".35"/><circle cx="1342.5" cy="1.3" r="1.4" fill="#392b22" opacity=".35"/><circle cx="659.8" cy="14.3" r="0.3" fill="#392b22" opacity=".35"/><circle cx="809.2" cy="1073.5" r="1.3" fill="#392b22" opacity=".35"/><circle cx="25.2" cy="9.0" r="1.1" fill="#392b22" opacity=".35"/><circle cx="439.6" cy="1063.3" r="1.5" fill="#392b22" opacity=".35"/><circle cx="1455.6" cy="1.8" r="0.7" fill="#392b22" opacity=".35"/><circle cx="991.6" cy="1069.0" r="0.4" fill="#392b22" opacity=".35"/><circle cx="1534.9" cy="7.8" r="0.7" fill="#392b22" opacity=".35"/><circle cx="1324.9" cy="1.4" r="0.4" fill="#392b22" opacity=".35"/><circle cx="606.8" cy="9.4" r="1.4" fill="#392b22" opacity=".35"/><circle cx="132.3" cy="1074.0" r="1.1" fill="#392b22" opacity=".35"/><circle cx="1372.7" cy="1.6" r="0.6" fill="#392b22" opacity=".35"/><circle cx="1442.0" cy="1072.6" r="0.4" fill="#392b22" opacity=".35"/><circle cx="119.0" cy="15.7" r="0.6" fill="#392b22" opacity=".35"/><g fill="none" stroke="#81362f" stroke-width=".9" opacity=".55"><path d="M25 5v70m-15-48h30m-24-7h18m-9-6 5 12-5 12-5-12Z"/><circle cx="25" cy="40" r="21" stroke-width=".4"/><path d="M1570 17v70m-15-48h30m-24-7h18m-9-6 5 12-5 12-5-12Z"/><circle cx="1570" cy="52" r="21" stroke-width=".4"/><path d="M1560 827v70m-15-48h30m-24-7h18m-9-6 5 12-5 12-5-12Z"/><circle cx="1560" cy="862" r="21" stroke-width=".4"/><path d="M46 957v70m-15-48h30m-24-7h18m-9-6 5 12-5 12-5-12Z"/><circle cx="46" cy="992" r="21" stroke-width=".4"/><path d="M1555 180v530m-6-490h12m-12 430h12M15 1055h1530" stroke-width=".45"/></g></svg>